<?xml version="1.0" encoding="UTF-8" standalone="no"?>
<!-- Created with Inkscape (http://www.inkscape.org/) -->

<svg
   xmlns:dc="http://purl.org/dc/elements/1.1/"
   xmlns:cc="http://creativecommons.org/ns#"
   xmlns:rdf="http://www.w3.org/1999/02/22-rdf-syntax-ns#"
   xmlns:svg="http://www.w3.org/2000/svg"
   xmlns="http://www.w3.org/2000/svg"
   xmlns:sodipodi="http://sodipodi.sourceforge.net/DTD/sodipodi-0.dtd"
   xmlns:inkscape="http://www.inkscape.org/namespaces/inkscape"
   width="41.454147"
   height="41.454147"
   id="svg2"
   sodipodi:version="0.32"
   inkscape:version="0.91 r"
   sodipodi:docname="Djambi_diplomat.svg"
   inkscape:output_extension="org.inkscape.output.svg.inkscape"
   version="1.1">
  <title
     id="title4877">Djambi diplomat piece</title>
  <defs
     id="defs4">
    <inkscape:perspective
       sodipodi:type="inkscape:persp3d"
       inkscape:vp_x="0 : 372.04724 : 1"
       inkscape:vp_y="0 : 1000 : 0"
       inkscape:vp_z="744.09448 : 372.04724 : 1"
       inkscape:persp3d-origin="372.04724 : 248.03149 : 1"
       id="perspective2932" />
    <inkscape:perspective
       id="perspective15227"
       inkscape:persp3d-origin="0.5 : 0.33333333 : 1"
       inkscape:vp_z="1 : 0.5 : 1"
       inkscape:vp_y="0 : 1000 : 0"
       inkscape:vp_x="0 : 0.5 : 1"
       sodipodi:type="inkscape:persp3d" />
    <inkscape:perspective
       id="perspective15249"
       inkscape:persp3d-origin="0.5 : 0.33333333 : 1"
       inkscape:vp_z="1 : 0.5 : 1"
       inkscape:vp_y="0 : 1000 : 0"
       inkscape:vp_x="0 : 0.5 : 1"
       sodipodi:type="inkscape:persp3d" />
    <inkscape:perspective
       id="perspective15271"
       inkscape:persp3d-origin="0.5 : 0.33333333 : 1"
       inkscape:vp_z="1 : 0.5 : 1"
       inkscape:vp_y="0 : 1000 : 0"
       inkscape:vp_x="0 : 0.5 : 1"
       sodipodi:type="inkscape:persp3d" />
    <inkscape:perspective
       id="perspective15299"
       inkscape:persp3d-origin="0.5 : 0.33333333 : 1"
       inkscape:vp_z="1 : 0.5 : 1"
       inkscape:vp_y="0 : 1000 : 0"
       inkscape:vp_x="0 : 0.5 : 1"
       sodipodi:type="inkscape:persp3d" />
    <inkscape:perspective
       id="perspective15338"
       inkscape:persp3d-origin="0.5 : 0.33333333 : 1"
       inkscape:vp_z="1 : 0.5 : 1"
       inkscape:vp_y="0 : 1000 : 0"
       inkscape:vp_x="0 : 0.5 : 1"
       sodipodi:type="inkscape:persp3d" />
    <inkscape:perspective
       id="perspective15338-1"
       inkscape:persp3d-origin="0.5 : 0.33333333 : 1"
       inkscape:vp_z="1 : 0.5 : 1"
       inkscape:vp_y="0 : 1000 : 0"
       inkscape:vp_x="0 : 0.5 : 1"
       sodipodi:type="inkscape:persp3d" />
    <inkscape:perspective
       id="perspective15338-4"
       inkscape:persp3d-origin="0.5 : 0.33333333 : 1"
       inkscape:vp_z="1 : 0.5 : 1"
       inkscape:vp_y="0 : 1000 : 0"
       inkscape:vp_x="0 : 0.5 : 1"
       sodipodi:type="inkscape:persp3d" />
    <inkscape:perspective
       id="perspective15441"
       inkscape:persp3d-origin="0.5 : 0.33333333 : 1"
       inkscape:vp_z="1 : 0.5 : 1"
       inkscape:vp_y="0 : 1000 : 0"
       inkscape:vp_x="0 : 0.5 : 1"
       sodipodi:type="inkscape:persp3d" />
    <inkscape:perspective
       id="perspective15441-7"
       inkscape:persp3d-origin="0.5 : 0.33333333 : 1"
       inkscape:vp_z="1 : 0.5 : 1"
       inkscape:vp_y="0 : 1000 : 0"
       inkscape:vp_x="0 : 0.5 : 1"
       sodipodi:type="inkscape:persp3d" />
    <inkscape:perspective
       id="perspective16403"
       inkscape:persp3d-origin="0.5 : 0.33333333 : 1"
       inkscape:vp_z="1 : 0.5 : 1"
       inkscape:vp_y="0 : 1000 : 0"
       inkscape:vp_x="0 : 0.5 : 1"
       sodipodi:type="inkscape:persp3d" />
    <inkscape:perspective
       id="perspective16790"
       inkscape:persp3d-origin="0.5 : 0.33333333 : 1"
       inkscape:vp_z="1 : 0.5 : 1"
       inkscape:vp_y="0 : 1000 : 0"
       inkscape:vp_x="0 : 0.5 : 1"
       sodipodi:type="inkscape:persp3d" />
    <inkscape:perspective
       id="perspective16893"
       inkscape:persp3d-origin="0.5 : 0.33333333 : 1"
       inkscape:vp_z="1 : 0.5 : 1"
       inkscape:vp_y="0 : 1000 : 0"
       inkscape:vp_x="0 : 0.5 : 1"
       sodipodi:type="inkscape:persp3d" />
    <inkscape:perspective
       id="perspective17041"
       inkscape:persp3d-origin="0.5 : 0.33333333 : 1"
       inkscape:vp_z="1 : 0.5 : 1"
       inkscape:vp_y="0 : 1000 : 0"
       inkscape:vp_x="0 : 0.5 : 1"
       sodipodi:type="inkscape:persp3d" />
    <inkscape:perspective
       id="perspective17114"
       inkscape:persp3d-origin="0.5 : 0.33333333 : 1"
       inkscape:vp_z="1 : 0.5 : 1"
       inkscape:vp_y="0 : 1000 : 0"
       inkscape:vp_x="0 : 0.5 : 1"
       sodipodi:type="inkscape:persp3d" />
    <inkscape:perspective
       id="perspective17187"
       inkscape:persp3d-origin="0.5 : 0.33333333 : 1"
       inkscape:vp_z="1 : 0.5 : 1"
       inkscape:vp_y="0 : 1000 : 0"
       inkscape:vp_x="0 : 0.5 : 1"
       sodipodi:type="inkscape:persp3d" />
    <inkscape:perspective
       id="perspective17280"
       inkscape:persp3d-origin="0.5 : 0.33333333 : 1"
       inkscape:vp_z="1 : 0.5 : 1"
       inkscape:vp_y="0 : 1000 : 0"
       inkscape:vp_x="0 : 0.5 : 1"
       sodipodi:type="inkscape:persp3d" />
    <inkscape:perspective
       id="perspective17353"
       inkscape:persp3d-origin="0.5 : 0.33333333 : 1"
       inkscape:vp_z="1 : 0.5 : 1"
       inkscape:vp_y="0 : 1000 : 0"
       inkscape:vp_x="0 : 0.5 : 1"
       sodipodi:type="inkscape:persp3d" />
    <inkscape:perspective
       id="perspective17530"
       inkscape:persp3d-origin="0.5 : 0.33333333 : 1"
       inkscape:vp_z="1 : 0.5 : 1"
       inkscape:vp_y="0 : 1000 : 0"
       inkscape:vp_x="0 : 0.5 : 1"
       sodipodi:type="inkscape:persp3d" />
    <inkscape:perspective
       id="perspective17603"
       inkscape:persp3d-origin="0.5 : 0.33333333 : 1"
       inkscape:vp_z="1 : 0.5 : 1"
       inkscape:vp_y="0 : 1000 : 0"
       inkscape:vp_x="0 : 0.5 : 1"
       sodipodi:type="inkscape:persp3d" />
    <inkscape:perspective
       id="perspective17676"
       inkscape:persp3d-origin="0.5 : 0.33333333 : 1"
       inkscape:vp_z="1 : 0.5 : 1"
       inkscape:vp_y="0 : 1000 : 0"
       inkscape:vp_x="0 : 0.5 : 1"
       sodipodi:type="inkscape:persp3d" />
    <inkscape:perspective
       id="perspective4692"
       inkscape:persp3d-origin="0.5 : 0.33333333 : 1"
       inkscape:vp_z="1 : 0.5 : 1"
       inkscape:vp_y="0 : 1000 : 0"
       inkscape:vp_x="0 : 0.5 : 1"
       sodipodi:type="inkscape:persp3d" />
  </defs>
  <sodipodi:namedview
     id="base"
     pagecolor="#ffffff"
     bordercolor="#666666"
     borderopacity="1.0"
     inkscape:pageopacity="0.0"
     inkscape:pageshadow="2"
     inkscape:zoom="14.208469"
     inkscape:cx="16.715384"
     inkscape:cy="20.797457"
     inkscape:document-units="px"
     inkscape:current-layer="layer1"
     inkscape:window-width="1366"
     inkscape:window-height="750"
     inkscape:window-x="0"
     inkscape:window-y="18"
     showgrid="false"
     inkscape:window-maximized="0"
     showguides="true"
     inkscape:guide-bbox="true"
     units="cm"
     showborder="false"
     fit-margin-top="0"
     fit-margin-left="0"
     fit-margin-right="0"
     fit-margin-bottom="0" />
  <metadata
     id="metadata7">
    <rdf:RDF>
      <cc:Work
         rdf:about="">
        <dc:format>image/svg+xml</dc:format>
        <dc:type
           rdf:resource="http://purl.org/dc/dcmitype/StillImage" />
        <dc:title>Djambi diplomat piece</dc:title>
        <cc:license
           rdf:resource="http://creativecommons.org/licenses/by-sa/3.0/" />
        <dc:creator>
          <cc:Agent>
            <dc:title>https://commons.wikimedia.org/wiki/User:Rsalen</dc:title>
          </cc:Agent>
        </dc:creator>
        <dc:contributor>
          <cc:Agent>
            <dc:title>https://en.wikipedia.org/wiki/User:Sballe73</dc:title>
          </cc:Agent>
        </dc:contributor>
      </cc:Work>
      <cc:License
         rdf:about="http://creativecommons.org/licenses/by-sa/3.0/">
        <cc:permits
           rdf:resource="http://creativecommons.org/ns#Reproduction" />
        <cc:permits
           rdf:resource="http://creativecommons.org/ns#Distribution" />
        <cc:requires
           rdf:resource="http://creativecommons.org/ns#Notice" />
        <cc:requires
           rdf:resource="http://creativecommons.org/ns#Attribution" />
        <cc:permits
           rdf:resource="http://creativecommons.org/ns#DerivativeWorks" />
        <cc:requires
           rdf:resource="http://creativecommons.org/ns#ShareAlike" />
      </cc:License>
    </rdf:RDF>
  </metadata>
  <g
     inkscape:label="Calque 1"
     inkscape:groupmode="layer"
     id="layer1"
     transform="translate(-449.62779,-182.30546)">
    <g
       id="g4734"
       transform="matrix(0.70710678,-0.70710678,0.70710678,0.70710678,45.869029,137.78952)">
      <circle
         transform="matrix(0.99999721,0.0023622,-0.0023622,0.99999721,0,0)"
         id="path4700-1-4-1-1-90-2-2-7-7-2-4-1-6-4"
         style="fill:#e74c3c;fill-opacity:1;stroke:#7b190f;stroke-width:0.74990207;stroke-miterlimit:4;stroke-dasharray:none;stroke-opacity:1"
         cx="254.84033"
         cy="345.68958"
         r="20.354485" />
      <g
         id="g4724">
        <g
           id="g4719">
          <g
             id="g4715">
            <g
               id="g4712">
              <path
                 id="path10477-6-4-1-5-5-3"
                 d="m 266.01671,336.87845 c -0.34343,-0.26169 -0.59637,-0.70766 -1.04903,-0.78355 c -0.20812,0.0705 -0.0766,0.34709 0.0502,0.43358 c 0.83667,0.91926 1.71012,1.83683 2.24432,2.97123 c 0.43214,0.82259 0.59183,1.75374 0.8112,2.6378 c -3.5e-4,0.11504 0.12694,0.46616 -0.0847,0.43601 c -0.53453,-0.40611 -0.46726,-1.16469 -0.81618,-1.69409 c -0.33736,-0.80682 -0.51702,-1.74136 -1.20565,-2.34607 c -0.3947,-0.42242 -0.7434,-0.92227 -1.27391,-1.18198 c -0.22882,0.0509 -0.12952,0.3291 -0.0128,0.44379 c 0.49583,0.68099 1.11662,1.29166 1.4494,2.07211 c 0.45054,0.8073 0.63037,1.74282 0.65684,2.65255 c -0.1465,0.34542 -0.61169,0.27706 -0.90866,0.21389 c -0.28097,-0.0782 -0.0901,-0.44698 -0.24387,-0.62914 c -0.26696,-0.77084 -0.32755,-1.65639 -0.93321,-2.26292 c -0.528,-0.73765 -1.17643,-1.3735 -1.76738,-2.05747 c -0.0208,-0.17342 0.19398,-0.29525 0.32053,-0.35603 c 0.13631,0.19401 0.2373,0.44055 0.40323,0.6266 c 0.33398,0.41968 0.70195,0.83134 1.11261,1.16691 c -0.10829,0.22794 0.30931,0.4503 0.38085,0.17296 c 0.0523,-0.15132 -0.096,-0.23686 -0.18399,-0.31622 c -0.0336,-0.44346 -0.57215,-0.58064 -0.68942,-0.98872 c -0.20469,-0.37262 -0.46756,-0.73677 -0.51668,-1.16965 c 0.28409,-0.31931 0.57722,-0.67453 0.99901,-0.79925 c 0.1497,-0.36818 -0.26727,-0.62273 -0.4582,-0.87612 c -0.87937,-0.92476 -1.85966,-1.75585 -2.88294,-2.51415 c -0.32544,-0.17155 -0.57943,-0.47563 -0.94298,-0.57313 c -0.30627,-0.29497 -0.72152,-0.45785 -1.14665,-0.42893 c -0.44217,-0.0732 -0.85522,-0.25101 -1.28068,-0.37937 c -0.26249,-0.21625 -0.54268,-0.3969 -0.83744,-0.56116 c -0.57764,-0.27556 -1.24571,-0.21066 -1.84738,-0.0904 c -0.54032,0.0282 -1.12114,-0.16772 -1.61915,0.12912 c -0.6249,0.34774 -1.14633,0.90761 -1.46411,1.54698 c -0.0458,0.30863 -0.0498,0.65199 -0.30219,0.87812 c -0.41702,0.40712 -1.03209,0.52179 -1.44706,0.93896 c -0.46857,0.42374 -0.91789,0.9176 -1.53545,1.1108 c -0.70154,0.36962 -1.53081,0.40042 -2.22994,0.7894 c -0.81044,0.37347 -1.64509,0.68831 -2.49287,0.94831 c -0.4162,0.15157 -0.90603,0.44155 -0.90159,0.94416 c -0.0494,0.46785 0.24499,0.86741 0.59949,1.13734 c 0.21807,0.21666 0.4341,0.45574 0.51534,0.75884 c -0.33066,0.40647 -0.78033,0.76619 -0.86923,1.31178 c -0.12266,0.33536 -0.40031,0.64438 -0.7709,0.66979 c -0.78895,0.32264 -1.07221,1.2968 -1.87193,1.60759 c -0.39388,0.14474 -0.86591,0.0693 -1.20229,0.3657 c -0.41333,0.27602 -0.88627,0.67907 -0.85631,1.22287 c 0.18886,0.41418 -0.0368,0.85739 -0.15367,1.25705 c -0.22705,0.4224 -0.33755,0.91263 -0.24165,1.38927 c 0.057,0.36872 0.1957,0.75083 0.45802,1.01872 c 0.51012,0.17596 0.91141,0.60267 1.03024,1.13136 c 0.12663,0.41175 0.27432,0.82177 0.49711,1.18712 c 0.1419,0.64269 -0.55953,1.31438 -1.19126,1.06271 c -0.31222,-10e-4 -0.72166,0.16068 -0.78814,0.50745 c 0.26858,0.92018 1.0754,1.5497 1.80937,2.10856 c 0.6078,0.36252 1.24737,0.67767 1.77377,1.15935 c 0.29359,0.28086 0.64201,0.48721 0.98498,0.69242 c 1.39772,1.13353 2.56398,2.51462 3.86119,3.75555 c 0.5777,0.59043 1.12664,1.25548 1.85306,1.65886 c 0.30358,0.026 0.40767,-0.34261 0.36384,-0.5835 c 0.004,-0.47782 0.0116,-1.10794 0.48149,-1.37551 c 0.34541,-0.10698 0.5577,0.30763 0.77402,0.50136 c 0.43265,0.41101 1.05795,0.41538 1.61681,0.45058 c 0.3004,0.0131 0.4983,0.28993 0.79396,0.33913 c 0.64895,0.17857 1.36207,0.0935 1.96827,-0.18012 c 0.26544,-0.12332 0.42617,-0.37781 0.51375,-0.64202 c 0.24318,-0.25732 0.65979,-0.0192 0.93897,-0.21284 c 0.79197,-0.31961 1.12129,-1.26707 1.02448,-2.06123 c -0.0465,-0.40694 0.42923,-0.53077 0.72296,-0.64348 c 0.2392,-0.0608 0.4861,-0.19275 0.53485,-0.45621 c 0.0664,-0.21145 0.13954,-0.58152 0.44984,-0.48676 c 0.45582,0.0401 0.93314,-0.19103 1.11397,-0.62691 c 0.0917,-0.1446 0.13148,-0.40157 0.27776,-0.47151 c 0.53362,0.39729 1.03658,0.99867 1.75132,1.02666 c 0.56974,-0.0274 0.94708,-0.55912 1.07225,-1.07084 c 0.51458,-1.3497 0.89462,-2.74345 1.2961,-4.1282 c 0.14175,-0.53106 0.36574,-1.05304 0.80336,-1.40713 c 0.46544,-0.46119 0.83995,-1.01068 1.07859,-1.61885 c 0.11104,-0.22615 0.35466,-0.30572 0.59016,-0.29286 c 0.92166,-0.10675 1.91252,-0.57559 2.25877,-1.49523 c 0.1622,-0.46792 0.37752,-0.9363 0.31721,-1.44311 c -0.0338,-1.18082 -0.48723,-2.29353 -0.77595,-3.42899 c -0.33297,-1.16113 -0.76354,-2.30962 -1.51622,-3.26919 c -0.40575,-0.51549 -0.7809,-1.06315 -1.24185,-1.53052 z m -1.73204,-0.0862 c -0.17488,-0.14518 -0.43705,0.12515 -0.27342,0.29166 c 0.0796,0.19457 0.40973,0.44537 0.5587,0.1988 c 0.0479,-0.19663 -0.16892,-0.36499 -0.28527,-0.49044 z m 4.03419,6.71858 c 0.50976,0.55615 0.53035,1.37833 0.51511,2.0971 c -0.0299,0.24171 -0.34312,0.23338 -0.43231,0.44363 c -0.21117,0.32388 -0.46008,0.81466 -0.92753,0.74563 c -0.26579,-0.005 -0.63337,-0.0518 -0.68147,-0.36917 c -0.47357,-0.37429 -0.65885,-0.96345 -0.73051,-1.54139 c -0.0541,-0.43212 -0.0825,-0.90838 0.0754,-1.31367 c 0.52315,-0.67522 1.60866,-0.67897 2.18111,-0.0623 z m -5.38282,-4.82821 c 0.30324,0.27636 0.4579,0.68813 0.75243,0.95979 c 0.33613,0.2616 0.55383,0.65424 0.78651,1.00581 c 0.45694,0.80646 0.5574,1.76331 0.86485,2.61117 c -0.0987,0.0178 -0.1615,-0.16998 -0.233,-0.22451 c -0.14874,-0.2558 -0.4334,-0.39875 -0.72455,-0.34583 c -0.23885,0.018 -0.60365,0.0416 -0.6514,-0.26841 c -0.19662,-0.73757 -0.46838,-1.50294 -1.08045,-2.00253 c -0.37425,-0.3686 -0.86444,-0.71906 -0.99114,-1.25081 c 0.0554,-0.57394 0.86602,-0.98595 1.27686,-0.48479 z m 1.92571,4.59812 c 0.19542,0.24958 0.19048,0.61389 0.43305,0.83685 c 0.33624,0.5543 0.19901,1.46381 -0.47812,1.68908 c -0.50943,0.18648 -0.97929,-0.20763 -1.20384,-0.63533 c -0.1232,-0.14059 -0.14023,-0.52197 -0.40272,-0.43595 c -0.28376,0.19707 -0.37119,0.62704 -0.75047,0.70012 c -0.24226,0.0793 -0.49562,-0.0297 -0.63683,-0.22634 c -0.2655,-0.14826 -0.50673,0.13996 -0.61083,0.35244 c -0.24358,0.36775 -0.78817,0.13812 -0.98793,-0.16559 c -0.51982,-0.72042 -0.33459,-1.76164 0.28418,-2.36407 c 0.13559,-0.27602 -0.28771,-0.53705 -0.49193,-0.3218 c -0.39469,0.33218 -0.93545,0.21334 -1.39393,0.3848 c -0.39892,0.10142 -0.80638,0.22184 -1.22239,0.18286 c 0.62794,-0.73966 1.31621,-1.4548 2.08119,-2.04994 c 0.35651,-0.036 0.50394,0.3918 0.76705,0.55707 c 0.29807,0.22397 0.2947,0.60758 0.39176,0.93059 c 0.20056,0.44043 0.88676,0.58275 1.19222,0.17291 c 0.25384,-0.17097 0.67365,0.0323 0.85989,-0.25701 c 0.10167,-0.25313 -0.24093,-0.33752 -0.42351,-0.3197 c -0.28947,-0.0194 -0.53743,0.11678 -0.81082,0.17894 c -0.16191,0.0209 -0.10494,-0.24811 -0.20348,-0.34947 c -0.26605,-0.54184 -0.92712,-0.85358 -1.02493,-1.47465 c 0.0242,-0.47817 0.52436,-0.71883 0.81287,-1.03722 c 0.56877,0.75003 1.42136,1.32902 1.72694,2.24465 c 0.14341,0.26716 0.3939,0.60479 0.16307,0.90463 c -0.0854,0.22018 -0.10202,0.45954 -0.16487,0.6888 c -0.0583,0.24634 0.12655,0.62241 0.41919,0.48977 c 0.29996,-0.14722 0.27026,-0.61581 0.6127,-0.72683 c 0.33142,-0.16957 0.76993,-0.20305 1.06251,0.0504 z m 1.21179,3.89456 c 0.22888,0.34302 -0.075,0.73216 -0.24585,1.03076 c -0.18456,0.44102 -0.53947,0.76783 -0.92137,1.04383 c -0.6731,0.52292 -0.73062,1.43578 -0.94782,2.19615 c -0.36999,1.04436 -0.65711,2.13138 -1.01806,3.17777 c -0.13215,0.33573 -0.23258,0.70355 -0.42368,1.00101 c -0.40594,0.26905 -0.90326,-0.0513 -1.13204,-0.40836 c -0.43868,-0.57614 -1.07897,-1.03173 -1.29017,-1.74703 c -0.16591,-0.11089 -0.22416,-0.38583 -0.0125,-0.49077 c 0.34152,-0.22471 0.7342,0.10286 0.89743,0.40195 c 0.11096,0.17643 0.1673,0.43137 0.39869,0.48679 c -0.0111,0.27945 0.20027,0.49425 0.32773,0.72123 c 0.1855,0.22934 0.53684,-0.0619 0.29491,-0.26223 c -0.10907,-0.069 -0.17317,-0.15889 -0.15965,-0.28778 c -0.0767,-0.20059 -0.3395,-0.28788 -0.30372,-0.54032 c -0.19115,-0.64756 -0.87421,-1.21838 -1.56955,-1.00866 c -0.44466,0.1111 -0.73061,0.52482 -0.85175,0.94524 c -0.26403,0.21735 -0.62518,-0.0116 -0.92674,-2.3e-4 c -0.67646,-0.12295 -1.36964,-0.007 -2.00167,0.25041 c -0.30545,0.0755 -0.63021,-0.0866 -0.92372,-0.0286 c 0.22735,-0.18719 -0.10952,-0.52871 -0.33443,-0.3869 c -0.23208,0.0876 -0.19275,0.44863 0.0546,0.47621 c 0.0684,0.0417 0.21434,-0.0664 0.14554,0.058 c -0.0547,0.19828 0.25823,0.27691 0.21888,0.45119 c -0.34114,0.27962 -0.87592,0.37699 -1.28205,0.19345 c -0.18371,-0.0916 -0.22374,-0.29487 -0.24133,-0.47175 c -0.11627,-0.26568 -0.0312,-0.56727 -0.006,-0.82508 c -0.1211,-0.23933 -0.40941,-0.0327 -0.59313,-0.10404 c -0.28508,-0.24746 -0.44101,-0.66984 -0.38563,-1.04397 c 0.13197,-0.37372 0.52221,-0.56153 0.82203,-0.77325 c 0.1288,-0.0745 0.22889,0.06 0.16578,0.18219 c -0.0619,0.22453 -0.10135,0.51664 0.0942,0.68257 c -0.0475,0.1502 -0.0411,0.4492 0.19171,0.369 c 0.21101,-0.0718 0.13146,0.24162 0.21232,0.34653 c 0.0517,0.20359 0.32106,0.48486 0.51552,0.26711 c 0.11727,-0.2737 0.0599,-0.67782 -0.20131,-0.85291 c -0.13559,-0.0946 -0.032,-0.28096 -0.16919,-0.3836 c -0.10067,-0.12612 0.10087,-0.25129 0.007,-0.38906 c -0.18961,-0.26471 -0.19917,-0.61965 -0.035,-0.90532 c 0.28867,-0.44614 0.19778,-0.99673 0.28312,-1.495 c 0.0608,-0.26717 0.41039,-0.0671 0.57337,-0.22349 c 0.59925,-0.25771 1.12247,-0.71963 1.4147,-1.30072 c 0.42458,-0.25247 0.92517,-0.0543 1.39133,-0.10717 c 0.36701,0.0426 0.78824,0.0116 1.01808,-0.32541 c 0.27067,-0.27916 0.64699,-0.52763 1.04726,-0.39409 c 0.84463,0.15135 1.67122,-0.19788 2.47611,-0.38518 c 0.17638,0.0888 0.32493,0.30371 0.525,0.39616 c 0.59707,0.36551 1.40047,0.40841 1.98643,-0.003 c 0.28928,-0.11091 0.36254,0.3632 0.64634,0.34368 c 0.0977,0.0126 0.19446,0.0574 0.26855,0.12284 z m -12.81368,-12.81226 c 0.1188,0.39239 -0.18974,0.76553 -0.15231,1.16197 c -0.0358,0.42717 0.17238,0.81789 0.42449,1.14182 c 0.24167,0.62078 -0.22602,1.28187 0.0542,1.89856 c 0.12121,0.37786 0.2343,0.76945 0.51658,1.06383 c 0.12559,0.47507 -0.31927,0.84437 -0.34816,1.30619 c -0.0795,0.30082 0.004,0.60355 0.0213,0.89745 c -0.16602,0.28453 -0.16669,0.66182 0.0144,0.93752 c 0.0366,0.32033 0.0721,0.66134 -0.056,0.96473 c -0.69178,-0.038 -1.51042,-0.0171 -1.99654,0.55934 c -0.27489,0.28621 -0.38937,0.68824 -0.61237,0.99958 c -0.35524,0.14119 -0.71725,0.28632 -1.04905,0.47263 c -0.23489,-0.0468 -0.41466,-0.26293 -0.66808,-0.24599 c -0.31495,-0.1038 -0.64675,-0.0732 -0.95902,0.006 c -0.26449,0.0214 -0.47875,-0.14912 -0.68558,-0.2812 c -0.30941,-0.12762 -0.67829,-0.0346 -0.98126,-0.0923 c -0.0119,-0.35672 -0.55882,-0.48952 -0.46132,-0.86135 c 0.23129,-0.45461 0.53932,-0.89741 0.6573,-1.40712 c 0.15429,-0.4556 0.0417,-0.94838 0.15485,-1.40831 c 0.0998,-0.29729 0.49711,-0.27419 0.65039,-0.53414 c 0.54654,-0.68371 0.32762,-1.78659 -0.35431,-2.29617 c -0.30236,-0.16913 -0.62063,-0.32325 -0.93639,-0.46656 c -0.23819,-0.10369 -0.59353,-0.0594 -0.65554,0.23894 c -0.0922,0.26752 0.13294,0.53175 0.40641,0.51615 c 0.32947,0.23642 0.87276,0.0324 1.07717,0.46103 c 0.22537,0.36988 0.0375,1.01306 -0.43456,1.04887 c -0.28599,-0.10179 -0.48859,-0.39313 -0.61625,-0.65839 c -0.20592,-0.60598 -0.91265,-0.78834 -1.32113,-1.22071 c -0.21617,-0.21335 -0.51011,-0.43813 -0.59224,-0.72137 c 0.32983,-0.29094 0.80567,-0.31137 1.19478,-0.49867 c 1.12886,-0.37826 2.18509,-0.94339 3.31884,-1.31524 c 0.62772,-0.22528 1.2231,-0.54 1.78048,-0.89863 c 0.50195,-0.23559 0.73933,-0.84738 1.28496,-1.00972 c 0.22372,-0.22655 0.55052,-0.0524 0.77992,0.0722 c 0.17368,0.0778 0.37979,0.0851 0.54411,0.16845 z m 8.49514,9.47997 c -0.18274,-0.16604 -0.57179,0.11141 -0.36343,0.31097 c 0.0749,0.0428 0.21435,0.0584 0.0711,0.12042 c -0.20977,0.15702 0.0284,0.3649 0.0828,0.53394 c -0.0143,0.25201 0.34821,0.32049 0.46407,0.11548 c 0.0988,-0.1281 -0.0166,-0.27627 -0.0803,-0.36873 c 0.0417,-0.16306 -0.0667,-0.37177 -0.25136,-0.35644 c 0.14144,-0.0689 0.22331,-0.24749 0.0771,-0.35565 z m -9.58797,-8.27722 c -0.33095,-0.28838 -0.91664,-0.27817 -1.15869,0.12338 c -0.31319,0.37003 -0.44839,0.84515 -0.56715,1.30175 c -0.4442,0.64196 -0.94669,1.26107 -1.26181,1.97366 c -0.20408,0.20312 -0.63837,0.27929 -0.63476,0.62628 c 0.091,0.22211 0.37755,0.10357 0.52103,0.006 c 0.2047,-0.14559 0.47092,-0.202 0.69423,-0.0629 c 0.73311,0.34671 1.40598,0.82174 2.04881,1.30988 c 0.15898,0.24045 0.22525,0.58092 0.53602,0.69339 c 0.19951,0.13445 0.50014,0.0856 0.58691,-0.15502 c 0.43673,-1.00934 0.3638,-2.14759 0.22597,-3.21413 c -0.13008,-0.60691 -0.28265,-1.21777 -0.39785,-1.82662 c -0.12867,-0.3006 -0.35838,-0.54976 -0.59253,-0.77563 z m 12.54781,12.92669 c -0.47626,-0.42507 -1.16899,-0.33918 -1.7187,-0.61814 c -1.06976,-0.37968 -2.21276,-0.51316 -3.33533,-0.61674 c -0.30156,-0.0133 -0.40589,0.32698 -0.35523,0.57005 c -0.0353,0.2624 0.0792,0.56268 0.3112,0.68699 c -0.072,0.20842 0.11312,0.38448 0.11493,0.58974 c 0.19057,0.65815 0.66693,1.30143 0.44707,2.01773 c -0.0402,0.2734 -0.23966,0.51507 -0.26499,0.77757 c 0.0666,0.19831 0.33742,0.17759 0.4496,0.0323 c 0.3536,-0.25545 0.41963,-0.71326 0.62717,-1.06113 c 0.42412,-0.44392 1.08148,-0.55298 1.50294,-1.00628 c 0.34115,-0.27651 0.64696,-0.73846 1.12982,-0.72072 c 0.38459,0.21632 0.97659,0.24455 1.2497,-0.15932 c 0.0974,-0.17174 -0.027,-0.37755 -0.15818,-0.49209 z m -5.50818,-4.7249 c 0.0971,0.17104 0.16376,0.43502 0.0436,0.59055 c -0.19375,-0.17522 -0.47336,-0.33349 -0.53329,-0.60442 c 0.13722,-0.091 0.37602,-0.13462 0.48972,0.0139 z m -7.41611,-6.90838 c 0.47125,0.49105 0.55649,1.20872 0.76698,1.82889 c 0.0583,0.31528 0.0546,0.72506 -0.0298,1.00878 c -0.13964,-0.18786 -0.045,-0.4566 -0.11475,-0.67186 c -0.0899,-0.78434 -0.47052,-1.49638 -0.76899,-2.21698 c -0.0693,-0.0883 -0.24718,-0.1513 -0.27614,-0.21279 c 0.18253,0.001 0.29883,0.15245 0.42266,0.26396 z m 6.4191,6.86498 c -0.10087,0.0413 -0.31876,0.0728 -0.37732,-0.009 c 0.11686,-0.0369 0.2783,-0.0411 0.37732,0.009 z m 0.81271,1.09092 c 0.41968,0.48842 0.0285,1.22537 -0.46592,1.49947 c -0.58468,0.36088 -1.30869,-0.0577 -1.60082,-0.59912 c -0.1282,-0.18179 -0.28564,-0.38081 -0.20968,-0.62418 c 0.11949,-0.46407 0.54561,-0.93487 1.06772,-0.83891 c 0.43208,-0.0197 0.77376,0.25693 1.1023,0.49504 c 0.033,0.026 0.0751,0.0399 0.10643,0.0677 z m -9.03831,-8.80283 c -0.36888,-0.10277 -0.71438,0.22871 -0.89862,0.51208 c -0.0242,0.23089 0.29234,0.21965 0.42593,0.12418 c 0.20584,-0.12155 0.57236,-0.22339 0.54765,-0.51979 c -0.012,-0.0472 -0.0375,-0.0867 -0.075,-0.11654 z m 12.44769,12.69085 c 0.0712,0.50252 -0.40389,0.89142 -0.83633,1.03914 c -0.22535,0.12678 -0.51198,0.34357 -0.77572,0.21224 c -0.21213,-0.29287 -0.26958,-0.66622 -0.44051,-0.97958 c -0.0407,-0.16994 -0.13281,-0.5206 0.13327,-0.55201 c 0.63329,-0.0587 1.36466,-0.0758 1.91929,0.28021 z m -11.18225,-11.21958 c 0.23199,0.70399 0.37972,1.4852 0.2538,2.22456 c -0.19221,0.14286 -0.37984,-0.148 -0.53126,-0.22609 c -0.26009,-0.24735 -0.62025,-0.33543 -0.89514,-0.54467 c 0.0512,-0.61635 0.5563,-1.06934 1.00834,-1.43854 c 0.0406,-0.015 0.1584,-0.10381 0.16426,-0.0153 z m 12.68092,12.85856 c -0.32152,-0.0538 -0.41954,0.35829 -0.53707,0.57313 c -0.15386,0.43954 -0.46607,0.85509 -0.45675,1.33271 c 0.003,0.24325 0.31307,0.13602 0.3647,-0.0294 c 0.21847,-0.45731 0.43481,-0.9225 0.62991,-1.3935 c 0.0258,-0.13734 0.14969,-0.38972 -8.1e-4,-0.48292 z m -15.14054,-13.65815 c -0.69025,0.095 -1.31415,0.49713 -2.02171,0.4576 c -0.32638,0.0595 -0.72616,0.005 -0.96262,0.28904 c -0.0354,0.27595 0.33512,0.2654 0.51472,0.22401 c 0.78587,-0.11017 1.63656,-0.10972 2.31033,-0.58587 c 0.17291,-0.032 0.37949,-0.22255 0.21893,-0.39344 l -0.0438,0.006 l -0.0161,0.002 z m 7.10263,8.42775 c -0.0195,0.16942 -0.3137,0.0782 -0.34409,-0.003 c 0.10778,-0.0447 0.24036,-0.0579 0.34409,0.003 z m 7.07091,7.79422 c -0.29389,-0.0828 -0.33611,0.49299 -0.0284,0.42615 c 0.16036,-0.0614 0.19341,-0.3562 0.0284,-0.42615 z m -7.18835,-6.90882 c 0.41873,0.41823 0.18274,1.1241 -0.23803,1.4482 c -0.32063,0.24554 -0.73335,0.46506 -1.14865,0.41372 c -0.21415,-0.0224 -0.17032,-0.30425 -0.36082,-0.36648 c -0.1653,-0.10406 -0.47358,-0.0827 -0.53107,-0.30625 c 0.19669,-0.5284 0.80392,-0.71864 1.21761,-1.05191 c 0.25941,-0.22377 0.69542,-0.48655 1.00147,-0.19119 c 0.0203,0.0175 0.04,0.0357 0.0595,0.0539 z m 3.86925,8.67135 c 0.30529,0.29821 0.25289,0.92 -0.14825,1.09942 c -0.47427,-0.009 -0.71141,-0.51202 -1.10692,-0.70699 c -0.35656,-0.25969 -0.87894,-0.30313 -1.21998,0.003 c -0.85627,0.52729 -1.55598,1.28021 -2.09606,2.12122 c -0.24712,0.34965 -0.67419,0.55116 -1.10088,0.47739 c -0.55257,-0.003 -1.12198,-0.52792 -0.94564,-1.10494 c 0.11826,-0.413 0.51313,-0.89348 0.98036,-0.76898 c 0.23023,0.14481 0.0418,0.43818 -0.10593,0.56381 c -0.22552,0.15835 -0.0788,0.62192 0.21186,0.52838 c 0.54016,-0.33765 0.72717,-1.00651 1.06131,-1.51271 c 0.52589,-0.82284 1.4214,-1.489 2.42503,-1.52612 c 0.74629,0.0195 1.50271,0.30652 2.04507,0.82597 z m -5.71149,-5.56411 c 0.44636,0.4407 0.12185,1.36286 -0.50187,1.4026 c -0.64086,-0.15915 -0.89685,-1.11338 -0.45276,-1.59353 c 0.29324,-0.23837 0.72279,-0.032 0.95463,0.19093 z m -2.0276,-0.35574 c 0.35853,0.52577 0.0731,1.30208 0.58629,1.75709 c 0.12743,0.10353 0.24714,0.31517 0.0547,0.42147 c -0.23659,0.26997 -0.20763,0.80698 -0.64236,0.86558 c -0.31967,-0.0104 -0.60203,-0.21085 -0.92227,-0.23484 c -0.36748,-0.19586 -0.36284,-0.68747 -0.33869,-1.04972 c -0.0865,-0.13179 -0.29061,-0.32032 -0.0801,-0.45281 c 0.4037,-0.47399 0.84871,-0.93455 1.3316,-1.31562 l 0.01,0.008 l 7e-4,7.2e-4 z m 5.94524,7.16886 c 0.27181,0.30264 0.2143,0.9174 -0.17949,1.07978 c -0.32779,-0.0709 -0.6025,-0.39687 -0.64441,-0.72983 c -0.0665,-0.44313 0.54639,-0.62403 0.82393,-0.34997 z m -13.88206,-13.39319 c 0.21205,0.20922 0.28972,0.72235 -0.0674,0.82588 c -0.45333,-0.0231 -0.80537,-0.40885 -1.09416,-0.71523 c 0.3043,-0.27686 0.81896,-0.36471 1.16161,-0.11065 z m 8.25359,10.34259 c 0.16162,0.13574 0.19996,0.49745 -0.0911,0.50421 c -0.59482,0.17196 -0.98026,0.80351 -0.93688,1.40255 c -0.0197,0.20753 -0.22194,0.39305 -0.4288,0.26489 c -0.54906,-0.24153 -0.77847,-0.99008 -0.53799,-1.52237 c 0.2031,-0.31595 0.77088,-0.31705 0.82286,-0.73518 c -0.10143,-0.26025 -0.44318,-0.11161 -0.63233,-0.0631 c -0.40176,0.12016 -0.71867,0.42669 -0.89539,0.79754 c -0.34707,0.21908 -0.81544,-0.0819 -0.93744,-0.43235 c -0.26621,-0.72773 0.41407,-1.65107 1.2059,-1.47915 c 0.37484,0.0759 0.47384,0.52108 0.80094,0.68328 c 0.44137,0.34747 1.07947,0.17356 1.52485,0.48165 c 0.0387,0.0288 0.0692,0.0664 0.1052,0.0981 z m 4.06237,4.31285 c 0.1887,0.33944 0.49168,0.6588 0.43345,1.07634 c 0.0446,0.46622 -0.0964,1.04353 -0.59426,1.19612 c -0.47531,0.18062 -1.17594,-0.0933 -1.2038,-0.65293 c 0.0271,-0.39712 0.52752,-0.49401 0.6921,-0.81953 c 0.25125,-0.23994 0.35224,-0.63542 0.67254,-0.79996 z m -3.26491,-2.97072 c 0.31987,0.28904 0.48771,0.93329 0.0568,1.20353 c -0.20004,0.14969 -0.5714,0.22749 -0.67436,-0.074 c -0.24387,-0.32632 -0.39158,-0.89473 -0.0109,-1.17897 c 0.19094,-0.12263 0.46934,-0.11409 0.62845,0.0494 z m -1.3158,1.65484 c 0.31453,0.27451 0.17936,0.94337 -0.27983,0.93195 c -0.48559,0.0465 -1.13807,-0.25715 -1.14283,-0.80333 c 0.027,-0.30496 0.43922,-0.28338 0.66163,-0.33864 c 0.27183,-0.10587 0.5618,0.0121 0.76103,0.21002 z m 2.28668,2.83253 c 0.28333,0.315 0.30073,0.78762 0.61037,1.08556 c 0.0677,0.16099 -0.0236,0.37564 -0.21597,0.38269 c -0.22587,0.0851 -0.54994,0.3287 -0.74013,0.0462 c -0.20851,-0.20286 -0.62625,-0.20566 -0.68298,-0.54906 c -0.10576,-0.43992 0.0788,-1.04983 0.58429,-1.11989 c 0.16303,-0.013 0.32675,0.0407 0.44443,0.15453 z m -4.75444,-4.32621 c 0.32741,0.47158 0.48244,1.10802 0.30209,1.64791 c -0.2726,0.12168 -0.58872,0.0146 -0.86407,-0.0451 c -0.28487,-0.17032 -0.408,-0.51958 -0.50543,-0.8155 c -0.0329,-0.46617 0.41142,-1.01696 0.9106,-0.89787 c 0.06,0.0245 0.12318,0.0529 0.1571,0.11085 z m -1.52153,-1.46213 c 0.0438,0.26907 0.18929,0.53412 0.31202,0.75248 c -0.19425,0.38778 -0.58131,0.70124 -0.60689,1.16578 c -0.14077,0.76817 0.20662,1.57048 0.79575,2.06356 c 0.0968,0.55761 0.0265,1.24889 0.52962,1.63592 c 0.0982,0.11761 0.32309,0.18436 0.34844,0.33402 c -0.13376,0.21649 -0.22128,0.44274 -0.2666,0.69277 c -0.13128,0.4436 -0.26271,0.88808 -0.32671,1.34504 c -0.7781,-0.47869 -1.23248,-1.31479 -1.86786,-1.95187 c -1.52396,-1.72324 -3.24336,-3.27348 -5.08493,-4.64293 c -0.47552,-0.39265 -0.97578,-0.76509 -1.44867,-1.15078 c -0.12216,-0.18749 -0.39662,-0.37088 -0.33874,-0.6108 c 0.31812,-0.14759 0.63316,0.12449 0.9243,0.19965 c 0.23602,-0.0293 0.4147,-0.21172 0.63797,-0.25266 c 0.42412,-0.36033 1.02753,-0.20946 1.50266,-0.058 c 0.32897,0.20254 0.56513,0.54194 0.94373,0.666 c 0.75722,0.34911 1.69454,0.31395 2.38662,-0.15957 c 0.3607,-0.14397 0.67596,0.23336 1.04279,0.11684 c 0.17695,-0.0374 0.35051,-0.10737 0.50391,-0.19726 l 0.0105,0.043 l 0.002,0.009 z m 4.93741,5.08229 c 0.139,0.21311 -0.16885,0.41971 -0.36637,0.32762 c -0.3819,-0.0189 -0.8086,-0.16351 -1.00374,-0.5068 c 0.15125,-0.25632 0.46601,-0.34169 0.73905,-0.41371 c 0.17404,0.2323 0.3906,0.43358 0.63109,0.5929 z m -0.46769,0.99797 c 0.0525,0.39449 -0.1566,0.77764 -0.45893,1.02438 c -0.3946,-0.0717 -0.76397,-0.38701 -0.8682,-0.76652 c -0.01,-0.1922 -0.0625,-0.47737 0.12261,-0.59016 c 0.40947,0.0254 0.84942,0.14243 1.20455,0.33228 z m -1.73348,-1.53985 c 0.20654,0.25024 -0.0736,0.61109 -0.36604,0.59057 c -0.64556,0.0701 -1.30803,-0.65016 -1.0244,-1.27816 c 0.12336,-0.27771 0.51921,-0.23558 0.65199,0.0201 c 0.22988,0.23978 0.48282,0.45609 0.73846,0.66746 z"
                 style="fill:#7b190f;fill-opacity:1"
                 inkscape:connector-curvature="0" />
            </g>
          </g>
        </g>
      </g>
    </g>
  </g>
</svg>
