<?xml version="1.0" encoding="UTF-8" standalone="no"?>
<!-- Created with Inkscape (http://www.inkscape.org/) -->

<svg
   xmlns:dc="http://purl.org/dc/elements/1.1/"
   xmlns:cc="http://creativecommons.org/ns#"
   xmlns:rdf="http://www.w3.org/1999/02/22-rdf-syntax-ns#"
   xmlns:svg="http://www.w3.org/2000/svg"
   xmlns="http://www.w3.org/2000/svg"
   xmlns:sodipodi="http://sodipodi.sourceforge.net/DTD/sodipodi-0.dtd"
   xmlns:inkscape="http://www.inkscape.org/namespaces/inkscape"
   width="41.454147"
   height="41.454147"
   id="svg2"
   sodipodi:version="0.32"
   inkscape:version="0.91 r"
   sodipodi:docname="Djambi_chief.svg"
   inkscape:output_extension="org.inkscape.output.svg.inkscape"
   version="1.1">
  <title
     id="title4877">Djambi chief piece</title>
  <defs
     id="defs4">
    <inkscape:perspective
       sodipodi:type="inkscape:persp3d"
       inkscape:vp_x="0 : 372.04724 : 1"
       inkscape:vp_y="0 : 1000 : 0"
       inkscape:vp_z="744.09448 : 372.04724 : 1"
       inkscape:persp3d-origin="372.04724 : 248.03149 : 1"
       id="perspective2932" />
    <inkscape:perspective
       id="perspective15227"
       inkscape:persp3d-origin="0.5 : 0.33333333 : 1"
       inkscape:vp_z="1 : 0.5 : 1"
       inkscape:vp_y="0 : 1000 : 0"
       inkscape:vp_x="0 : 0.5 : 1"
       sodipodi:type="inkscape:persp3d" />
    <inkscape:perspective
       id="perspective15249"
       inkscape:persp3d-origin="0.5 : 0.33333333 : 1"
       inkscape:vp_z="1 : 0.5 : 1"
       inkscape:vp_y="0 : 1000 : 0"
       inkscape:vp_x="0 : 0.5 : 1"
       sodipodi:type="inkscape:persp3d" />
    <inkscape:perspective
       id="perspective15271"
       inkscape:persp3d-origin="0.5 : 0.33333333 : 1"
       inkscape:vp_z="1 : 0.5 : 1"
       inkscape:vp_y="0 : 1000 : 0"
       inkscape:vp_x="0 : 0.5 : 1"
       sodipodi:type="inkscape:persp3d" />
    <inkscape:perspective
       id="perspective15299"
       inkscape:persp3d-origin="0.5 : 0.33333333 : 1"
       inkscape:vp_z="1 : 0.5 : 1"
       inkscape:vp_y="0 : 1000 : 0"
       inkscape:vp_x="0 : 0.5 : 1"
       sodipodi:type="inkscape:persp3d" />
    <inkscape:perspective
       id="perspective15338"
       inkscape:persp3d-origin="0.5 : 0.33333333 : 1"
       inkscape:vp_z="1 : 0.5 : 1"
       inkscape:vp_y="0 : 1000 : 0"
       inkscape:vp_x="0 : 0.5 : 1"
       sodipodi:type="inkscape:persp3d" />
    <inkscape:perspective
       id="perspective15338-1"
       inkscape:persp3d-origin="0.5 : 0.33333333 : 1"
       inkscape:vp_z="1 : 0.5 : 1"
       inkscape:vp_y="0 : 1000 : 0"
       inkscape:vp_x="0 : 0.5 : 1"
       sodipodi:type="inkscape:persp3d" />
    <inkscape:perspective
       id="perspective15338-4"
       inkscape:persp3d-origin="0.5 : 0.33333333 : 1"
       inkscape:vp_z="1 : 0.5 : 1"
       inkscape:vp_y="0 : 1000 : 0"
       inkscape:vp_x="0 : 0.5 : 1"
       sodipodi:type="inkscape:persp3d" />
    <inkscape:perspective
       id="perspective15441"
       inkscape:persp3d-origin="0.5 : 0.33333333 : 1"
       inkscape:vp_z="1 : 0.5 : 1"
       inkscape:vp_y="0 : 1000 : 0"
       inkscape:vp_x="0 : 0.5 : 1"
       sodipodi:type="inkscape:persp3d" />
    <inkscape:perspective
       id="perspective15441-7"
       inkscape:persp3d-origin="0.5 : 0.33333333 : 1"
       inkscape:vp_z="1 : 0.5 : 1"
       inkscape:vp_y="0 : 1000 : 0"
       inkscape:vp_x="0 : 0.5 : 1"
       sodipodi:type="inkscape:persp3d" />
    <inkscape:perspective
       id="perspective16403"
       inkscape:persp3d-origin="0.5 : 0.33333333 : 1"
       inkscape:vp_z="1 : 0.5 : 1"
       inkscape:vp_y="0 : 1000 : 0"
       inkscape:vp_x="0 : 0.5 : 1"
       sodipodi:type="inkscape:persp3d" />
    <inkscape:perspective
       id="perspective16790"
       inkscape:persp3d-origin="0.5 : 0.33333333 : 1"
       inkscape:vp_z="1 : 0.5 : 1"
       inkscape:vp_y="0 : 1000 : 0"
       inkscape:vp_x="0 : 0.5 : 1"
       sodipodi:type="inkscape:persp3d" />
    <inkscape:perspective
       id="perspective16893"
       inkscape:persp3d-origin="0.5 : 0.33333333 : 1"
       inkscape:vp_z="1 : 0.5 : 1"
       inkscape:vp_y="0 : 1000 : 0"
       inkscape:vp_x="0 : 0.5 : 1"
       sodipodi:type="inkscape:persp3d" />
    <inkscape:perspective
       id="perspective17041"
       inkscape:persp3d-origin="0.5 : 0.33333333 : 1"
       inkscape:vp_z="1 : 0.5 : 1"
       inkscape:vp_y="0 : 1000 : 0"
       inkscape:vp_x="0 : 0.5 : 1"
       sodipodi:type="inkscape:persp3d" />
    <inkscape:perspective
       id="perspective17114"
       inkscape:persp3d-origin="0.5 : 0.33333333 : 1"
       inkscape:vp_z="1 : 0.5 : 1"
       inkscape:vp_y="0 : 1000 : 0"
       inkscape:vp_x="0 : 0.5 : 1"
       sodipodi:type="inkscape:persp3d" />
    <inkscape:perspective
       id="perspective17187"
       inkscape:persp3d-origin="0.5 : 0.33333333 : 1"
       inkscape:vp_z="1 : 0.5 : 1"
       inkscape:vp_y="0 : 1000 : 0"
       inkscape:vp_x="0 : 0.5 : 1"
       sodipodi:type="inkscape:persp3d" />
    <inkscape:perspective
       id="perspective17280"
       inkscape:persp3d-origin="0.5 : 0.33333333 : 1"
       inkscape:vp_z="1 : 0.5 : 1"
       inkscape:vp_y="0 : 1000 : 0"
       inkscape:vp_x="0 : 0.5 : 1"
       sodipodi:type="inkscape:persp3d" />
    <inkscape:perspective
       id="perspective17353"
       inkscape:persp3d-origin="0.5 : 0.33333333 : 1"
       inkscape:vp_z="1 : 0.5 : 1"
       inkscape:vp_y="0 : 1000 : 0"
       inkscape:vp_x="0 : 0.5 : 1"
       sodipodi:type="inkscape:persp3d" />
    <inkscape:perspective
       id="perspective17530"
       inkscape:persp3d-origin="0.5 : 0.33333333 : 1"
       inkscape:vp_z="1 : 0.5 : 1"
       inkscape:vp_y="0 : 1000 : 0"
       inkscape:vp_x="0 : 0.5 : 1"
       sodipodi:type="inkscape:persp3d" />
    <inkscape:perspective
       id="perspective17603"
       inkscape:persp3d-origin="0.5 : 0.33333333 : 1"
       inkscape:vp_z="1 : 0.5 : 1"
       inkscape:vp_y="0 : 1000 : 0"
       inkscape:vp_x="0 : 0.5 : 1"
       sodipodi:type="inkscape:persp3d" />
    <inkscape:perspective
       id="perspective17676"
       inkscape:persp3d-origin="0.5 : 0.33333333 : 1"
       inkscape:vp_z="1 : 0.5 : 1"
       inkscape:vp_y="0 : 1000 : 0"
       inkscape:vp_x="0 : 0.5 : 1"
       sodipodi:type="inkscape:persp3d" />
    <inkscape:perspective
       id="perspective4692"
       inkscape:persp3d-origin="0.5 : 0.33333333 : 1"
       inkscape:vp_z="1 : 0.5 : 1"
       inkscape:vp_y="0 : 1000 : 0"
       inkscape:vp_x="0 : 0.5 : 1"
       sodipodi:type="inkscape:persp3d" />
  </defs>
  <sodipodi:namedview
     id="base"
     pagecolor="#ffffff"
     bordercolor="#666666"
     borderopacity="1.0"
     inkscape:pageopacity="0.0"
     inkscape:pageshadow="2"
     inkscape:zoom="14.208469"
     inkscape:cx="20.727075"
     inkscape:cy="20.727075"
     inkscape:document-units="px"
     inkscape:current-layer="layer1"
     inkscape:window-width="1366"
     inkscape:window-height="750"
     inkscape:window-x="0"
     inkscape:window-y="18"
     showgrid="false"
     inkscape:window-maximized="0"
     showguides="true"
     inkscape:guide-bbox="true"
     units="cm"
     showborder="false"
     fit-margin-top="0"
     fit-margin-left="0"
     fit-margin-right="0"
     fit-margin-bottom="0" />
  <metadata
     id="metadata7">
    <rdf:RDF>
      <cc:Work
         rdf:about="">
        <dc:format>image/svg+xml</dc:format>
        <dc:type
           rdf:resource="http://purl.org/dc/dcmitype/StillImage" />
        <dc:title>Djambi chief piece</dc:title>
        <cc:license
           rdf:resource="http://creativecommons.org/licenses/by-sa/3.0/" />
        <dc:creator>
          <cc:Agent>
            <dc:title>https://commons.wikimedia.org/wiki/User:Rsalen</dc:title>
          </cc:Agent>
        </dc:creator>
        <dc:contributor>
          <cc:Agent>
            <dc:title>https://en.wikipedia.org/wiki/User:Sballe73</dc:title>
          </cc:Agent>
        </dc:contributor>
      </cc:Work>
      <cc:License
         rdf:about="http://creativecommons.org/licenses/by-sa/3.0/">
        <cc:permits
           rdf:resource="http://creativecommons.org/ns#Reproduction" />
        <cc:permits
           rdf:resource="http://creativecommons.org/ns#Distribution" />
        <cc:requires
           rdf:resource="http://creativecommons.org/ns#Notice" />
        <cc:requires
           rdf:resource="http://creativecommons.org/ns#Attribution" />
        <cc:permits
           rdf:resource="http://creativecommons.org/ns#DerivativeWorks" />
        <cc:requires
           rdf:resource="http://creativecommons.org/ns#ShareAlike" />
      </cc:License>
    </rdf:RDF>
  </metadata>
  <g
     inkscape:label="Calque 1"
     inkscape:groupmode="layer"
     id="layer1"
     transform="translate(-445.6161,-182.23509)">
    <g
       id="g4742"
       transform="matrix(0.70710678,-0.70710678,0.70710678,0.70710678,41.857262,73.43049)">
      <path
         id="path9618-1-5-2-1-6-8-5"
         d="m 222.6652,389.76757 c -0.008,-0.008 -0.0149,-0.0135 -0.0214,-0.0144 c -0.18288,-0.036 -1.04766,1.32464 -1.33658,2.10279 c -0.32911,0.8865 -0.27184,1.68124 0.17392,2.40794 c 0.10796,0.17598 0.20752,0.33493 0.22131,0.35354 c 0.16334,0.22019 1.00805,-0.65179 1.26647,-1.30734 c 0.21718,-0.55098 0.27817,-1.2286 0.1718,-1.90803 c -0.095,-0.60708 -0.3606,-1.50792 -0.47563,-1.6343 z m -12.04816,-12.10415 c -0.12599,-0.11609 -1.02274,-0.38659 -1.63258,-0.48502 c -0.67146,-0.10839 -1.35119,-0.0524 -1.90379,0.15663 c -0.48524,0.18356 -1.2993,0.8595 -1.33366,1.10746 c -0.0219,0.15825 0.18483,0.32017 0.72153,0.56567 c 0.62047,0.28379 1.28669,0.28088 2.08417,-0.009 c 0.67516,-0.24549 2.10933,-1.15306 2.07827,-1.31496 c -7.1e-4,-0.006 -0.006,-0.0129 -0.0138,-0.0209 z m -3.6413,-2.33388 c -0.001,-0.001 -0.002,-0.002 -0.004,-0.003 c -0.11554,-0.0563 -1.11283,0.31971 -1.694,0.63886 c -1.21534,0.66741 -1.9757,1.64853 -2.04898,2.64214 c -0.0126,0.17102 -0.005,0.32903 0.0171,0.35142 c 0.0696,0.07 0.87592,-0.0423 1.20386,-0.16781 c 0.71292,-0.27291 1.42647,-0.94899 1.87685,-1.77757 c 0.36022,-0.6627 0.72494,-1.61223 0.64907,-1.68425 z m 18.00389,18.08917 c -0.0791,-0.0777 -1.21855,0.36246 -1.79091,0.69403 c -1.12803,0.65347 -1.75301,1.53744 -1.85928,2.62972 c -0.0188,0.19306 -0.0179,0.36787 0.002,0.38774 c 0.0711,0.0714 0.81576,-0.038 1.11436,-0.16353 c 0.7251,-0.30487 1.45745,-1.03904 1.94536,-1.95101 c 0.28349,-0.52964 0.64078,-1.4908 0.5918,-1.5926 c -0.001,-0.002 -0.002,-0.003 -0.004,-0.005 z m -17.47244,-13.55987 c -0.0777,-0.0749 -0.26995,-0.16828 -0.62083,-0.33102 c -1.24997,-0.57979 -2.48983,-0.60205 -3.43349,-0.0601 c -0.40022,0.22984 -0.77433,0.5761 -0.7811,0.72269 c -0.005,0.0977 0.46402,0.50645 0.82806,0.72199 l 0.17658,0.10446 l -0.21423,-0.0257 c -0.3104,-0.0378 -0.94242,-0.04 -1.73051,-0.006 c -0.76584,0.0333 -1.34573,0.21675 -1.88413,0.59701 c -0.35694,0.25216 -0.85756,0.81316 -0.94016,1.05303 c -0.0573,0.16635 -0.0924,0.13254 0.34542,0.3327 c 1.24028,0.5666 2.44625,0.16631 4.10716,-1.36274 c 0.53267,-0.49039 0.59501,-0.53123 0.76712,-0.50344 c 0.37515,0.0606 0.92469,0.0186 1.36207,-0.1042 c 0.51118,-0.14346 1.5742,-0.6374 1.89936,-0.8823 c 0.14621,-0.11016 0.20639,-0.17132 0.11865,-0.25654 z m 12.93736,12.99972 c -0.0813,-0.0785 -0.13925,-0.0175 -0.24762,0.12585 c -0.26511,0.35081 -0.719,1.28989 -0.86641,1.79227 c -0.15261,0.52003 -0.20595,1.07911 -0.13658,1.44541 c 0.0361,0.19046 0.0143,0.26808 -0.0982,0.34666 c -0.22033,0.15386 -1.23033,1.36553 -1.49642,1.79526 c -0.59735,0.96453 -0.69064,1.77354 -0.31186,2.69716 c 0.0825,0.20131 0.16338,0.38217 0.18033,0.40215 c 0.0825,0.0972 0.41748,-0.12007 0.86688,-0.56248 c 0.46197,-0.45491 0.50436,-0.51568 0.71696,-1.05409 c 0.16682,-0.42181 0.23318,-0.74631 0.25302,-1.23644 c 0.0327,-0.80819 0.0311,-1.41816 -0.004,-1.70313 l -0.0258,-0.21324 l 0.12205,0.20563 c 0.0671,0.11354 0.25894,0.34507 0.42625,0.51351 l 0.30422,0.30563 l 0.2349,-0.20479 c 0.30688,-0.26756 0.6421,-0.84582 0.77078,-1.32978 c 0.20203,-0.75982 0.0516,-1.87753 -0.37005,-2.75193 c -0.15737,-0.32634 -0.24698,-0.5044 -0.31868,-0.57369 z m -17.59797,-16.08184 c -0.0181,-0.0167 -0.0477,-0.0157 -0.0901,-0.007 c -0.0824,0.0161 -0.39244,0.18541 -0.68851,0.37603 c -1.57103,1.01132 -2.32989,2.06297 -2.33123,3.22895 c -3.2e-4,0.27735 0.0277,0.53262 0.0624,0.56747 c 0.0347,0.0349 0.16553,0.0476 0.29088,0.0276 c 0.76561,-0.12245 1.75779,-0.94539 2.1639,-1.79424 c 0.24121,-0.50419 0.41979,-1.11535 0.5618,-1.92111 c 0.0563,-0.31954 0.071,-0.4409 0.0308,-0.47719 z m 20.66696,20.76482 c -0.0361,-0.0404 -0.15753,-0.0263 -0.47733,0.0285 c -2.06901,0.35458 -3.10833,1.04721 -3.63575,2.42411 c -0.12144,0.31702 -0.14997,0.49092 -0.0914,0.54977 c 0.0471,0.0473 0.29834,0.0889 0.55817,0.0919 c 0.87571,0.0103 1.7841,-0.46936 2.5433,-1.34236 c 0.44069,-0.50673 1.06627,-1.4431 1.11005,-1.66189 c 0.008,-0.0423 0.009,-0.0717 -0.007,-0.0901 z m -2.00977,4.03874 l -0.0693,-0.0158 c -0.0667,-0.0766 -0.30449,-0.12432 -0.75932,-0.2021 c -0.94715,-0.16197 -1.80706,-0.11585 -2.4347,0.13021 c -0.46242,0.1813 -0.54225,0.23728 -1.01492,0.70872 c -0.32535,0.32394 -0.53444,0.57757 -0.57066,0.69073 c -0.0682,0.21306 -0.008,0.25338 0.72565,0.48345 c 0.5976,0.18751 1.06303,0.15842 1.75708,-0.11111 c 0.49434,-0.19198 1.30739,-0.71902 1.9831,-1.28496 c 0.20399,-0.17089 0.32287,-0.27818 0.3326,-0.35564 l 0.0505,-0.0435 z m -22.71208,-22.80514 l -0.0266,0.0294 c -0.0385,-0.0102 -0.0819,0.0146 -0.13443,0.0668 c -0.26987,0.2686 -0.91072,1.1135 -1.17413,1.54817 c -0.65151,1.07511 -0.74821,1.79909 -0.37306,2.79269 c 0.0793,0.21009 0.15862,0.39696 0.17638,0.41612 c 0.0909,0.098 0.42025,-0.1182 0.89547,-0.58759 c 0.47649,-0.47084 0.53106,-0.54676 0.71518,-1.00989 c 0.24902,-0.62646 0.29921,-1.48615 0.14172,-2.43403 c -0.0757,-0.45525 -0.13342,-0.68884 -0.20578,-0.76533 l -0.015,-0.0566 z m 18.01024,20.38032 c -0.0939,-0.0944 -0.92873,0.54822 -1.65017,1.27065 c -0.56281,0.56354 -0.69367,0.7269 -0.84733,1.05432 c -0.26062,0.55527 -0.3337,1.02798 -0.24604,1.59566 c 0.0421,0.2729 0.10748,0.51222 0.14478,0.53132 c 0.0373,0.0191 0.235,-0.0267 0.43944,-0.10135 c 0.32929,-0.12023 0.43588,-0.19939 0.93657,-0.69772 c 0.54499,-0.54217 0.57327,-0.58317 0.78821,-1.12832 c 0.32313,-0.8201 0.58967,-2.36868 0.43454,-2.52456 z m -15.62614,-15.66205 c -0.16371,-0.15099 -1.60804,0.0674 -2.42801,0.38368 c -0.51952,0.20034 -0.68498,0.29971 -1.04998,0.62639 c -0.4834,0.43264 -0.81835,0.89359 -0.92956,1.28129 c -0.0407,0.1418 -0.0565,0.27526 -0.0354,0.29646 c 0.0211,0.0212 0.19975,0.0686 0.39699,0.10499 c 0.79361,0.14629 1.50646,-0.0209 2.21741,-0.52012 c 0.58268,-0.40917 1.82101,-1.8452 1.84356,-2.13741 c 8.5e-4,-0.0136 -0.004,-0.0252 -0.0151,-0.0353 z m 17.66028,21.20307 c -0.0807,-0.075 -0.24707,-0.18259 -0.51556,-0.35985 c -1.44863,-0.95655 -2.48954,-1.1101 -3.60696,-0.53165 c -0.43619,0.22581 -0.64986,0.41607 -0.65765,0.58538 c -0.008,0.16791 0.506,0.66203 0.90319,0.86825 c 0.18486,0.0959 0.50469,0.20545 0.7111,0.24338 c 0.75019,0.13787 2.04443,-0.0896 2.92853,-0.51453 c 0.10666,-0.0512 0.18766,-0.0877 0.23751,-0.12141 c 5.1e-4,-3.3e-4 6.5e-4,-7.6e-4 0.001,-10e-4 c 0.0126,-0.003 0.0196,-0.008 0.0211,-0.0169 c 0.0511,-0.044 0.0483,-0.0852 -0.0226,-0.15168 z m -23.18817,-23.29693 c -0.11324,-0.10051 -0.15781,0.022 -0.29611,0.31379 c -0.58766,1.23842 -0.70676,2.6581 -0.29478,3.51743 c 0.19678,0.41044 0.72129,0.9784 0.89624,0.97119 c 0.1693,-0.007 0.36061,-0.21976 0.58845,-0.65492 c 0.58372,-1.11466 0.43509,-2.15628 -0.51461,-3.60941 c -0.19287,-0.29513 -0.30194,-0.46903 -0.37918,-0.53801 z m 3.51566,5.07008 c -0.0813,-0.0798 -1.22609,0.16459 -1.8372,0.39178 c -1.21096,0.4502 -2.04111,1.24916 -2.34853,2.26042 c -0.0559,0.18403 -0.0849,0.35101 -0.0641,0.37194 c 0.0576,0.0578 0.66354,0.11506 0.97161,0.0912 c 1.02976,-0.0796 2.09329,-0.96214 2.96894,-2.46261 c 0.17494,-0.29982 0.33005,-0.55624 0.34375,-0.56989 c 0.0137,-0.0136 -0.002,-0.051 -0.0345,-0.0829 z m 14.62692,14.69848 c -0.0281,-0.0253 -0.0579,-0.0361 -0.0699,-0.0242 c -0.0137,0.0136 -0.27286,0.16834 -0.57599,0.34328 c -1.82505,1.05354 -2.61612,2.19913 -2.46068,3.56324 c 0.0207,0.18197 0.0685,0.34562 0.106,0.36337 c 0.12151,0.0576 0.87348,-0.25604 1.24273,-0.51797 c 0.6776,-0.48061 1.20087,-1.26634 1.49639,-2.24732 c 0.19971,-0.66303 0.33679,-1.40132 0.27314,-1.46861 c -0.004,-0.004 -0.008,-0.008 -0.0117,-0.0118 z m -20.00946,-17.00959 c -0.0179,-0.0169 -0.033,-0.0231 -0.0481,-0.0191 c -0.0402,-0.0318 -0.067,-0.046 -0.0749,-0.0383 c -0.11482,0.11427 -0.27246,0.5668 -0.36502,1.0454 c -0.18763,0.97003 -0.12068,1.93278 0.17694,2.54221 c 0.16704,0.34202 0.77321,0.96129 1.00857,1.03021 c 0.1,0.0293 0.24158,0.009 0.31398,-0.0468 c 0.17782,-0.13581 0.4904,-0.93302 0.53925,-1.37397 c 0.0436,-0.39393 -0.10062,-1.36116 -0.24784,-1.66118 c -0.10413,-0.21217 -0.87874,-1.06811 -1.24102,-1.40167 c -0.0244,-0.0343 -0.0453,-0.0611 -0.0619,-0.0768 z m 21.97811,22.08885 c -0.39885,-0.39038 -0.98483,-0.90734 -1.1642,-0.99699 c -0.11676,-0.0584 -0.27781,-0.10927 -0.3578,-0.11273 c -0.08,-0.003 -0.30242,-0.0433 -0.4944,-0.0884 c -0.46942,-0.11042 -1.03543,-0.0482 -1.59666,0.1747 c -0.5327,0.21153 -0.68786,0.3696 -0.6179,0.63204 c 0.0335,0.12604 0.19126,0.31657 0.49321,0.59645 c 0.38413,0.35613 0.5085,0.43072 0.92522,0.55721 c 0.55204,0.16755 1.37215,0.18566 2.13438,0.047 c 0.48871,-0.0889 0.94746,-0.24416 1.06501,-0.36117 c 0.0241,-0.024 -0.14753,-0.21357 -0.38669,-0.44792 z m -17.14381,-17.19586 c -0.0631,-0.0634 -0.90277,0.25634 -1.55736,0.59331 c -0.42214,0.21729 -0.58258,0.33 -0.99316,0.73059 c -0.15207,0.13143 -0.28869,0.26749 -0.40879,0.40919 c -0.33578,0.34569 -0.41332,0.46947 -0.53502,0.77253 c -0.0897,0.22332 -0.17952,0.56032 -0.2004,0.7487 c -0.0209,0.18839 -0.001,0.37887 0.0432,0.42364 c 0.10816,0.10868 0.69877,0.0139 1.21401,-0.19463 c 0.59602,-0.24131 1.21939,-0.81592 1.644,-1.51574 c 0.32857,-0.54146 0.87253,-1.88821 0.79411,-1.96699 z m 12.60075,12.66496 c -0.081,-0.0754 -1.4191,0.45326 -1.94159,0.76696 c -0.96446,0.579 -1.59031,1.39789 -1.75668,2.29874 c -0.0511,0.27649 -0.0506,0.50996 3.6e-4,0.56117 c 0.11898,0.11955 0.68611,0.0498 1.17922,-0.14547 c 0.36731,-0.14553 0.46672,-0.22117 1.02346,-0.77529 c 0.54101,-0.53819 0.6508,-0.6798 0.89737,-1.15324 c 0.34393,-0.66043 0.66401,-1.49173 0.59786,-1.55287 z m -12.91695,-10.03492 c -0.0342,-0.0384 -0.0866,-0.0334 -0.16001,-3.7e-4 c -0.24356,0.10963 -1.62507,1.44806 -1.89885,1.83959 c -0.51183,0.73216 -0.68411,1.43619 -0.54348,2.21992 c 0.0354,0.19741 0.0926,0.38806 0.12769,0.42328 c 0.096,0.0965 0.65453,-0.16638 1.09728,-0.51605 c 0.8982,-0.70943 1.27483,-1.55842 1.40401,-3.16904 c 0.0396,-0.49377 0.0388,-0.72439 -0.0267,-0.79735 z m 10.28823,10.33702 c -0.0728,-0.0658 -0.3032,-0.0677 -0.79721,-0.0304 c -1.1975,0.0904 -1.94306,0.31602 -2.56827,0.77667 c -0.39364,0.28998 -0.87162,0.89072 -1.05835,1.3291 c -0.14822,0.34794 -0.13136,0.3891 0.19804,0.48165 c 0.68248,0.19174 1.65414,-0.0168 2.38691,-0.51247 c 0.35546,-0.24034 1.73358,-1.65311 1.83846,-1.88456 c 0.0333,-0.0733 0.0385,-0.12547 3.8e-4,-0.16 z m -14.49757,-13.33129 c -0.42703,-0.42138 -1.29672,-1.07661 -1.48575,-1.0688 c -0.0938,0.004 -0.21738,0.64365 -0.21411,1.10842 c 0.005,0.6709 0.12203,1.34 0.31634,1.8029 c 0.29872,0.71162 1.24564,1.49918 1.68749,1.40385 c 0.16035,-0.0346 0.18961,-0.0683 0.28842,-0.33833 c 0.25852,-0.70708 0.17737,-1.74151 -0.17597,-2.24289 c -0.095,-0.13478 -0.17534,-0.29428 -0.17822,-0.35515 c -0.003,-0.055 -0.0957,-0.16957 -0.23814,-0.30998 z m 17.63647,17.76827 c -0.50971,-0.51395 -0.94129,-0.77524 -1.5124,-0.91499 c -0.40348,-0.0987 -1.14474,-0.0533 -1.55731,0.0954 c -0.27116,0.0977 -0.30467,0.12602 -0.34026,0.28737 c -0.0218,0.0984 0.026,0.31217 0.1063,0.4747 c 0.23182,0.46901 0.78836,0.99601 1.2745,1.2076 c 0.47409,0.20636 1.13191,0.32801 1.81702,0.33608 c 0.46475,0.005 1.10508,-0.11508 1.10942,-0.20888 c 0.007,-0.15708 -0.49403,-0.87067 -0.89723,-1.27722 z m -13.67613,-11.47292 l -0.14312,0.20279 c -0.0788,0.1118 -0.27695,0.55506 -0.43986,0.9848 c -0.23612,0.62287 -0.30308,0.92166 -0.33023,1.47293 c -0.0345,0.70098 0.0303,1.03823 0.29401,1.53707 c 0.0803,0.152 0.26643,0.38806 0.41393,0.52467 l 0.26856,0.24848 l 0.14182,-0.14465 c 0.0443,-0.0301 0.0921,-0.0808 0.1491,-0.15193 l 0.0474,-0.0488 c 0.6391,-0.649 0.87104,-1.68779 0.59263,-2.65509 c -0.14436,-0.50157 -0.53347,-1.32716 -0.80389,-1.70501 l -0.1907,-0.26566 z m 7.10384,7.16323 c -0.0636,-0.0639 -0.36139,-0.24528 -0.6615,-0.40327 c -1.19435,-0.62878 -2.12086,-0.76466 -2.98781,-0.439 c -0.45141,0.16956 -1.03539,0.57849 -1.14214,0.79963 c -0.112,0.23193 0.79935,0.89905 1.38907,1.01652 c 0.44151,0.088 1.06201,0.0656 1.59247,-0.0567 c 0.54874,-0.12644 1.42387,-0.46478 1.72596,-0.66732 c 0.18248,-0.12238 0.18979,-0.14355 0.084,-0.2499 z m -10.71429,-9.52559 c -0.0833,-0.0842 -0.18464,-0.18181 -0.31283,-0.30153 c -0.56182,-0.52731 -0.61848,-0.56375 -1.18602,-0.75755 c -0.3277,-0.11191 -0.63549,-0.20307 -0.68435,-0.20304 c -0.25735,1.1e-4 -0.0579,1.3354 0.32772,2.19569 c 0.20633,0.46037 0.28863,0.57297 0.71777,0.97466 c 0.41486,0.38827 0.54329,0.47046 0.88154,0.56829 c 0.38487,0.1113 0.61093,0.1228 0.74413,0.003 c 3.4e-4,-2.9e-4 6.9e-4,-7.2e-4 0.001,-10e-4 c 0.014,-0.006 0.0252,-0.0124 0.0332,-0.0205 c 0.014,-0.0139 0.0264,-0.0377 0.0371,-0.0693 c 0.0472,-0.0848 0.0757,-0.20168 0.0926,-0.3545 c 0.0497,-0.44842 -0.0288,-0.952 -0.21824,-1.40598 c -0.10217,-0.24484 -0.18376,-0.37509 -0.43381,-0.62766 z m 13.19075,13.25325 c -0.25136,-0.25127 -0.38181,-0.33401 -0.62617,-0.43732 c -0.62216,-0.26308 -1.5646,-0.31945 -1.80802,-0.11394 c -0.007,0.004 -0.0127,0.008 -0.0173,0.013 c -0.005,0.005 -0.009,0.0118 -0.0134,0.0191 c -6.4e-4,6.3e-4 -10e-4,0.001 -0.002,0.002 c -0.1533,0.18583 -0.12117,0.56088 0.0899,1.03585 c 0.21821,0.4911 0.82763,1.04997 1.45439,1.33333 c 0.87068,0.39371 2.17376,0.59551 2.17509,0.33692 c 2.1e-4,-0.0489 -0.09,-0.35764 -0.20036,-0.68585 c -0.1911,-0.56847 -0.2267,-0.62477 -0.7514,-1.18905 c -0.11969,-0.12817 -0.2163,-0.23044 -0.30007,-0.31421 z m -12.05056,-9.67814 c -0.0323,-0.0337 -0.0622,-0.0579 -0.0899,-0.069 c -0.0847,-0.0339 -0.29876,-0.15455 -0.4755,-0.268 c -0.17677,-0.11342 -0.54389,-0.2749 -0.81602,-0.35888 c -0.6356,-0.19617 -1.62965,-0.33501 -1.72437,-0.24075 c -0.11503,0.11449 0.0839,0.69726 0.43175,1.26494 c 0.61219,0.9991 1.44512,1.59251 2.35489,1.67735 c 0.35721,0.0333 0.77368,-0.0679 0.93322,-0.22664 c 0.16477,-0.164 -0.30442,-1.45083 -0.61405,-1.77899 z m 8.4809,8.52106 c -0.32672,-0.31116 -1.61128,-0.78644 -1.77605,-0.62244 c -0.33978,0.33836 -0.30663,1.24677 0.0731,1.98807 c 0.20306,0.39643 1.05084,1.15904 1.63194,1.46806 c 0.46294,0.24618 0.93191,0.38421 1.01703,0.29951 c 0.0742,-0.0739 -0.0925,-1.21254 -0.25606,-1.74906 c -0.083,-0.27222 -0.24297,-0.63987 -0.35558,-0.81713 c -0.11262,-0.17726 -0.23219,-0.39183 -0.26575,-0.47678 c -0.011,-0.0278 -0.0349,-0.058 -0.0686,-0.0902 z m -4.76986,-3.73361 c -0.20808,-0.20907 -0.40934,-0.24385 -0.69182,-0.11857 c -0.30582,0.13562 -0.56168,0.52025 -0.52612,0.79156 c 0.0131,0.10005 0.0989,0.25756 0.19052,0.34958 c 0.22471,0.22577 0.47893,0.24712 0.78092,0.0656 c 0.19543,-0.11751 0.27632,-0.20547 0.36177,-0.39586 c 0.12662,-0.28188 0.0928,-0.4833 -0.11529,-0.69237 z m -2.25291,-1.50311 c -0.30991,-0.31556 -0.73578,-0.54142 -1.30087,-0.69349 c -0.6367,-0.17135 -1.94473,-0.29491 -2.04675,-0.19338 c -0.12565,0.12506 0.11552,0.62906 0.65251,1.36448 c 0.25347,0.34709 0.96325,0.93722 1.3195,1.09693 c 0.70835,0.31756 1.54437,0.32171 1.88661,0.009 c 0.0164,-0.0136 0.03,-0.0271 0.0415,-0.0413 l 0.0158,-0.003 l -7.1e-4,-0.012 c 0.095,-0.10349 0.0964,-0.1824 0.0407,-0.41448 c -0.0413,-0.17197 -0.17464,-0.48655 -0.29656,-0.69952 c -0.087,-0.15188 -0.19058,-0.28956 -0.31182,-0.41307 z m 3.72467,3.75465 c -0.24588,-0.24022 -0.54688,-0.42044 -0.90901,-0.55213 c -0.44386,-0.1614 -0.55844,-0.14487 -0.7248,0.10403 c -0.29394,0.4398 -0.1493,1.57134 0.28291,2.21684 c 0.50878,0.75985 2.01029,1.82274 2.24488,1.58925 c 0.0347,-0.0346 0.0406,-0.37983 0.013,-0.7676 c -0.0885,-1.24223 -0.36576,-2.06215 -0.90698,-2.59039 z"
         style="fill:#124364;fill-opacity:1;stroke:none"
         inkscape:connector-curvature="0" />
    </g>
  </g>
</svg>
