<?xml version="1.0" encoding="UTF-8" standalone="no"?>
<!-- Created with Inkscape (http://www.inkscape.org/) -->

<svg
   xmlns:dc="http://purl.org/dc/elements/1.1/"
   xmlns:cc="http://creativecommons.org/ns#"
   xmlns:rdf="http://www.w3.org/1999/02/22-rdf-syntax-ns#"
   xmlns:svg="http://www.w3.org/2000/svg"
   xmlns="http://www.w3.org/2000/svg"
   xmlns:sodipodi="http://sodipodi.sourceforge.net/DTD/sodipodi-0.dtd"
   xmlns:inkscape="http://www.inkscape.org/namespaces/inkscape"
   width="41.454147"
   height="41.454147"
   id="svg2"
   sodipodi:version="0.32"
   inkscape:version="0.91 r"
   sodipodi:docname="Djambi_assassin.svg"
   inkscape:output_extension="org.inkscape.output.svg.inkscape"
   version="1.1">
  <title
     id="title4877">Djambi assassin piece</title>
  <defs
     id="defs4">
    <inkscape:perspective
       sodipodi:type="inkscape:persp3d"
       inkscape:vp_x="0 : 372.04724 : 1"
       inkscape:vp_y="0 : 1000 : 0"
       inkscape:vp_z="744.09448 : 372.04724 : 1"
       inkscape:persp3d-origin="372.04724 : 248.03149 : 1"
       id="perspective2932" />
    <inkscape:perspective
       id="perspective15227"
       inkscape:persp3d-origin="0.5 : 0.33333333 : 1"
       inkscape:vp_z="1 : 0.5 : 1"
       inkscape:vp_y="0 : 1000 : 0"
       inkscape:vp_x="0 : 0.5 : 1"
       sodipodi:type="inkscape:persp3d" />
    <inkscape:perspective
       id="perspective15249"
       inkscape:persp3d-origin="0.5 : 0.33333333 : 1"
       inkscape:vp_z="1 : 0.5 : 1"
       inkscape:vp_y="0 : 1000 : 0"
       inkscape:vp_x="0 : 0.5 : 1"
       sodipodi:type="inkscape:persp3d" />
    <inkscape:perspective
       id="perspective15271"
       inkscape:persp3d-origin="0.5 : 0.33333333 : 1"
       inkscape:vp_z="1 : 0.5 : 1"
       inkscape:vp_y="0 : 1000 : 0"
       inkscape:vp_x="0 : 0.5 : 1"
       sodipodi:type="inkscape:persp3d" />
    <inkscape:perspective
       id="perspective15299"
       inkscape:persp3d-origin="0.5 : 0.33333333 : 1"
       inkscape:vp_z="1 : 0.5 : 1"
       inkscape:vp_y="0 : 1000 : 0"
       inkscape:vp_x="0 : 0.5 : 1"
       sodipodi:type="inkscape:persp3d" />
    <inkscape:perspective
       id="perspective15338"
       inkscape:persp3d-origin="0.5 : 0.33333333 : 1"
       inkscape:vp_z="1 : 0.5 : 1"
       inkscape:vp_y="0 : 1000 : 0"
       inkscape:vp_x="0 : 0.5 : 1"
       sodipodi:type="inkscape:persp3d" />
    <inkscape:perspective
       id="perspective15338-1"
       inkscape:persp3d-origin="0.5 : 0.33333333 : 1"
       inkscape:vp_z="1 : 0.5 : 1"
       inkscape:vp_y="0 : 1000 : 0"
       inkscape:vp_x="0 : 0.5 : 1"
       sodipodi:type="inkscape:persp3d" />
    <inkscape:perspective
       id="perspective15338-4"
       inkscape:persp3d-origin="0.5 : 0.33333333 : 1"
       inkscape:vp_z="1 : 0.5 : 1"
       inkscape:vp_y="0 : 1000 : 0"
       inkscape:vp_x="0 : 0.5 : 1"
       sodipodi:type="inkscape:persp3d" />
    <inkscape:perspective
       id="perspective15441"
       inkscape:persp3d-origin="0.5 : 0.33333333 : 1"
       inkscape:vp_z="1 : 0.5 : 1"
       inkscape:vp_y="0 : 1000 : 0"
       inkscape:vp_x="0 : 0.5 : 1"
       sodipodi:type="inkscape:persp3d" />
    <inkscape:perspective
       id="perspective15441-7"
       inkscape:persp3d-origin="0.5 : 0.33333333 : 1"
       inkscape:vp_z="1 : 0.5 : 1"
       inkscape:vp_y="0 : 1000 : 0"
       inkscape:vp_x="0 : 0.5 : 1"
       sodipodi:type="inkscape:persp3d" />
    <inkscape:perspective
       id="perspective16403"
       inkscape:persp3d-origin="0.5 : 0.33333333 : 1"
       inkscape:vp_z="1 : 0.5 : 1"
       inkscape:vp_y="0 : 1000 : 0"
       inkscape:vp_x="0 : 0.5 : 1"
       sodipodi:type="inkscape:persp3d" />
    <inkscape:perspective
       id="perspective16790"
       inkscape:persp3d-origin="0.5 : 0.33333333 : 1"
       inkscape:vp_z="1 : 0.5 : 1"
       inkscape:vp_y="0 : 1000 : 0"
       inkscape:vp_x="0 : 0.5 : 1"
       sodipodi:type="inkscape:persp3d" />
    <inkscape:perspective
       id="perspective16893"
       inkscape:persp3d-origin="0.5 : 0.33333333 : 1"
       inkscape:vp_z="1 : 0.5 : 1"
       inkscape:vp_y="0 : 1000 : 0"
       inkscape:vp_x="0 : 0.5 : 1"
       sodipodi:type="inkscape:persp3d" />
    <inkscape:perspective
       id="perspective17041"
       inkscape:persp3d-origin="0.5 : 0.33333333 : 1"
       inkscape:vp_z="1 : 0.5 : 1"
       inkscape:vp_y="0 : 1000 : 0"
       inkscape:vp_x="0 : 0.5 : 1"
       sodipodi:type="inkscape:persp3d" />
    <inkscape:perspective
       id="perspective17114"
       inkscape:persp3d-origin="0.5 : 0.33333333 : 1"
       inkscape:vp_z="1 : 0.5 : 1"
       inkscape:vp_y="0 : 1000 : 0"
       inkscape:vp_x="0 : 0.5 : 1"
       sodipodi:type="inkscape:persp3d" />
    <inkscape:perspective
       id="perspective17187"
       inkscape:persp3d-origin="0.5 : 0.33333333 : 1"
       inkscape:vp_z="1 : 0.5 : 1"
       inkscape:vp_y="0 : 1000 : 0"
       inkscape:vp_x="0 : 0.5 : 1"
       sodipodi:type="inkscape:persp3d" />
    <inkscape:perspective
       id="perspective17280"
       inkscape:persp3d-origin="0.5 : 0.33333333 : 1"
       inkscape:vp_z="1 : 0.5 : 1"
       inkscape:vp_y="0 : 1000 : 0"
       inkscape:vp_x="0 : 0.5 : 1"
       sodipodi:type="inkscape:persp3d" />
    <inkscape:perspective
       id="perspective17353"
       inkscape:persp3d-origin="0.5 : 0.33333333 : 1"
       inkscape:vp_z="1 : 0.5 : 1"
       inkscape:vp_y="0 : 1000 : 0"
       inkscape:vp_x="0 : 0.5 : 1"
       sodipodi:type="inkscape:persp3d" />
    <inkscape:perspective
       id="perspective17530"
       inkscape:persp3d-origin="0.5 : 0.33333333 : 1"
       inkscape:vp_z="1 : 0.5 : 1"
       inkscape:vp_y="0 : 1000 : 0"
       inkscape:vp_x="0 : 0.5 : 1"
       sodipodi:type="inkscape:persp3d" />
    <inkscape:perspective
       id="perspective17603"
       inkscape:persp3d-origin="0.5 : 0.33333333 : 1"
       inkscape:vp_z="1 : 0.5 : 1"
       inkscape:vp_y="0 : 1000 : 0"
       inkscape:vp_x="0 : 0.5 : 1"
       sodipodi:type="inkscape:persp3d" />
    <inkscape:perspective
       id="perspective17676"
       inkscape:persp3d-origin="0.5 : 0.33333333 : 1"
       inkscape:vp_z="1 : 0.5 : 1"
       inkscape:vp_y="0 : 1000 : 0"
       inkscape:vp_x="0 : 0.5 : 1"
       sodipodi:type="inkscape:persp3d" />
    <inkscape:perspective
       id="perspective4692"
       inkscape:persp3d-origin="0.5 : 0.33333333 : 1"
       inkscape:vp_z="1 : 0.5 : 1"
       inkscape:vp_y="0 : 1000 : 0"
       inkscape:vp_x="0 : 0.5 : 1"
       sodipodi:type="inkscape:persp3d" />
  </defs>
  <sodipodi:namedview
     id="base"
     pagecolor="#ffffff"
     bordercolor="#666666"
     borderopacity="1.0"
     inkscape:pageopacity="0.0"
     inkscape:pageshadow="2"
     inkscape:zoom="13.543201"
     inkscape:cx="20.727072"
     inkscape:cy="20.727067"
     inkscape:document-units="px"
     inkscape:current-layer="layer1"
     inkscape:window-width="1366"
     inkscape:window-height="750"
     inkscape:window-x="0"
     inkscape:window-y="18"
     showgrid="false"
     inkscape:window-maximized="0"
     showguides="true"
     inkscape:guide-bbox="true"
     units="cm"
     showborder="false"
     fit-margin-top="0"
     fit-margin-left="0"
     fit-margin-right="0"
     fit-margin-bottom="0" />
  <metadata
     id="metadata7">
    <rdf:RDF>
      <cc:Work
         rdf:about="">
        <dc:format>image/svg+xml</dc:format>
        <dc:type
           rdf:resource="http://purl.org/dc/dcmitype/StillImage" />
        <dc:title>Djambi assassin piece</dc:title>
        <cc:license
           rdf:resource="http://creativecommons.org/licenses/by-sa/3.0/" />
        <dc:creator>
          <cc:Agent>
            <dc:title>https://commons.wikimedia.org/wiki/User:Rsalen</dc:title>
          </cc:Agent>
        </dc:creator>
        <dc:contributor>
          <cc:Agent>
            <dc:title>https://en.wikipedia.org/wiki/User:Sballe73</dc:title>
          </cc:Agent>
        </dc:contributor>
      </cc:Work>
      <cc:License
         rdf:about="http://creativecommons.org/licenses/by-sa/3.0/">
        <cc:permits
           rdf:resource="http://creativecommons.org/ns#Reproduction" />
        <cc:permits
           rdf:resource="http://creativecommons.org/ns#Distribution" />
        <cc:requires
           rdf:resource="http://creativecommons.org/ns#Notice" />
        <cc:requires
           rdf:resource="http://creativecommons.org/ns#Attribution" />
        <cc:permits
           rdf:resource="http://creativecommons.org/ns#DerivativeWorks" />
        <cc:requires
           rdf:resource="http://creativecommons.org/ns#ShareAlike" />
      </cc:License>
    </rdf:RDF>
  </metadata>
  <g
     inkscape:label="Calque 1"
     inkscape:groupmode="layer"
     id="layer1"
     transform="translate(-445.6161,-182.23509)">
    <g
       id="g4746"
       transform="matrix(0.70710678,-0.70710678,0.70710678,0.70710678,9.7129732,105.57479)">
      <circle
         transform="matrix(0.99999721,0.0023622,-0.0023622,0.99999721,0,0)"
         id="path4700-1-4-6-8-22-9-7-2-8-2-6-7-8-1"
         style="fill:#3498db;fill-opacity:1;stroke:#124364;stroke-width:0.74990207;stroke-miterlimit:4;stroke-dasharray:none;stroke-opacity:1"
         cx="254.94772"
         cy="391.14844"
         r="20.354485" />
      <path
         id="path10607-8-5-6-5-1-0"
         d="m 264.89436,380.92795 c -5.97643,-6.00472 -15.68836,-6.02768 -21.69309,-0.0512 c -6.00472,5.97643 -6.02767,15.68838 -0.0512,21.6931 c 5.97644,6.00472 15.6913,6.03061 21.69602,0.0542 c 6.00472,-5.97643 6.02475,-15.6913 0.0483,-21.69603 z m -0.6087,1.55521 c 4.65756,5.14847 4.75088,12.95049 0.29183,18.20466 l -3.54837,-3.56519 c 2.52214,-3.28024 2.42329,-7.92564 -0.29685,-11.10283 l 3.55337,-3.53668 z m -1.24831,-1.2189 l -3.21777,3.20263 c -0.0793,-0.19719 -0.18684,-0.38496 -0.32763,-0.55881 c -0.067,-0.0889 -0.14114,-0.17141 -0.21966,-0.25021 c -0.74581,-0.80181 -1.99456,-0.89567 -2.96247,-0.43287 c -7.1e-4,7.1e-4 -0.002,0.002 -0.003,0.003 c -2.5774,-0.68804 -5.40364,-0.19189 -7.61936,1.49459 l -3.5513,-3.56812 c 5.17199,-4.34699 12.7742,-4.3054 17.9012,0.10984 z m -3.35316,5.79867 c 2.1529,2.59184 2.25024,6.31153 0.29301,9.00282 l -2.96229,-2.97643 c 0.3743,-0.37855 0.746,-0.75732 1.11584,-1.13989 c 0.4682,-0.6673 0.0549,-1.50891 -0.55946,-1.88692 l -0.44865,-0.45007 l 2.5616,-2.54887 z m -4.67554,-2.59566 c -0.40083,0.73464 0.20582,1.86566 -0.56369,2.38356 c -0.69991,-0.4887 -1.20612,-1.2494 -1.87551,-1.79603 c -0.20797,-0.22975 -0.4641,-0.32187 -0.72762,-0.32478 c 1.02675,-0.31788 2.1093,-0.40574 3.1668,-0.26273 z m -4.18103,0.66271 c -0.12962,0.10699 -0.2444,0.22884 -0.33565,0.35756 l -0.5242,0.52138 l -0.23147,-0.23256 c 0.34814,-0.25057 0.71384,-0.46443 1.09118,-0.64653 z m 4.04733,4.95559 c 0.19609,0.19702 0.26612,0.4728 0.21852,0.74359 c 0.2586,-0.0294 0.51654,0.0479 0.70141,0.23369 c 0.34391,0.34532 0.309,0.94071 -0.0795,1.32737 c -0.27632,0.27502 -0.65853,0.36832 -0.9787,0.27671 l -1.58018,0.0139 l 0.14786,-1.66497 c -0.0566,-0.29465 0.0393,-0.62518 0.28401,-0.8687 c 0.37365,-0.37225 0.94938,-0.40037 1.28658,-0.0616 z m -11.05169,-7.67718 l 3.53668,3.55337 c -1.1938,1.37213 -1.89142,3.02709 -2.09651,4.7296 l -0.81275,0.80851 c 0.60031,0.31056 0.42654,0.73085 -0.0318,1.0514 l -3.53575,3.51906 c -1.51332,-4.61849 -0.53235,-9.87586 2.93998,-13.66218 z m 4.58267,4.60445 l 0.27541,0.27672 l -1.28338,1.27773 c 0.26376,-0.54834 0.60057,-1.07202 1.00816,-1.55426 z m 7.32531,7.35996 l 3.00334,3.01762 c -2.29733,1.92351 -5.48871,2.22678 -8.06441,0.90613 l 0.27379,-0.2725 c 0.56605,1.09007 1.21896,-0.22333 1.76966,-0.65372 c 1.00036,-1.0046 2.0118,-1.99767 3.01765,-2.99743 z m 4.0494,4.06863 l 3.5366,3.55343 c -4.87159,4.42566 -12.13536,4.7534 -17.36044,0.99284 l 3.62407,-3.60696 c 3.19497,1.86316 7.31065,1.55077 10.19974,-0.93926 z m -12.45536,-4.05321 l 1.25715,1.26282 l -0.47134,0.46851 c -0.37442,-0.50551 -0.67567,-1.04954 -0.90373,-1.61457 l 0.11776,-0.11721 z m -1.23934,1.23368 c 0.2638,0.5415 0.58725,1.06088 0.96851,1.55011 l -3.56226,3.54543 c -0.39441,-0.46244 -0.75085,-0.9461 -1.07449,-1.44464 l 3.6682,-3.65094 z"
         style="fill:#124364;fill-opacity:1;fill-rule:nonzero;stroke:none"
         inkscape:connector-curvature="0" />
    </g>
  </g>
</svg>
