<?xml version="1.0" encoding="UTF-8" standalone="no"?>
<!-- Created with Inkscape (http://www.inkscape.org/) -->

<svg
   xmlns:dc="http://purl.org/dc/elements/1.1/"
   xmlns:cc="http://creativecommons.org/ns#"
   xmlns:rdf="http://www.w3.org/1999/02/22-rdf-syntax-ns#"
   xmlns:svg="http://www.w3.org/2000/svg"
   xmlns="http://www.w3.org/2000/svg"
   xmlns:sodipodi="http://sodipodi.sourceforge.net/DTD/sodipodi-0.dtd"
   xmlns:inkscape="http://www.inkscape.org/namespaces/inkscape"
   width="44"
   height="44"
   id="svg5257"
   version="1.1"
   inkscape:version="0.47 r22583"
   sodipodi:docname="djambi_reporter_jaune.svg">
  <defs
     id="defs5259">
    <inkscape:perspective
       sodipodi:type="inkscape:persp3d"
       inkscape:vp_x="0 : 526.18109 : 1"
       inkscape:vp_y="0 : 1000 : 0"
       inkscape:vp_z="744.09448 : 526.18109 : 1"
       inkscape:persp3d-origin="372.04724 : 350.78739 : 1"
       id="perspective5265" />
    <inkscape:perspective
       id="perspective5250"
       inkscape:persp3d-origin="0.5 : 0.33333333 : 1"
       inkscape:vp_z="1 : 0.5 : 1"
       inkscape:vp_y="0 : 1000 : 0"
       inkscape:vp_x="0 : 0.5 : 1"
       sodipodi:type="inkscape:persp3d" />
    <inkscape:perspective
       id="perspective5288"
       inkscape:persp3d-origin="0.5 : 0.33333333 : 1"
       inkscape:vp_z="1 : 0.5 : 1"
       inkscape:vp_y="0 : 1000 : 0"
       inkscape:vp_x="0 : 0.5 : 1"
       sodipodi:type="inkscape:persp3d" />
    <inkscape:perspective
       id="perspective5316"
       inkscape:persp3d-origin="0.5 : 0.33333333 : 1"
       inkscape:vp_z="1 : 0.5 : 1"
       inkscape:vp_y="0 : 1000 : 0"
       inkscape:vp_x="0 : 0.5 : 1"
       sodipodi:type="inkscape:persp3d" />
    <inkscape:perspective
       id="perspective5344"
       inkscape:persp3d-origin="0.5 : 0.33333333 : 1"
       inkscape:vp_z="1 : 0.5 : 1"
       inkscape:vp_y="0 : 1000 : 0"
       inkscape:vp_x="0 : 0.5 : 1"
       sodipodi:type="inkscape:persp3d" />
  </defs>
  <sodipodi:namedview
     id="base"
     pagecolor="#ffffff"
     bordercolor="#666666"
     borderopacity="1.0"
     inkscape:pageopacity="0.0"
     inkscape:pageshadow="2"
     inkscape:zoom="2.8"
     inkscape:cx="-11.947378"
     inkscape:cy="14.906824"
     inkscape:document-units="px"
     inkscape:current-layer="layer1"
     showgrid="false"
     inkscape:window-width="1600"
     inkscape:window-height="1147"
     inkscape:window-x="1276"
     inkscape:window-y="-4"
     inkscape:window-maximized="1" />
  <metadata
     id="metadata5262">
    <rdf:RDF>
      <cc:Work
         rdf:about="">
        <dc:format>image/svg+xml</dc:format>
        <dc:type
           rdf:resource="http://purl.org/dc/dcmitype/StillImage" />
        <dc:title />
      </cc:Work>
    </rdf:RDF>
  </metadata>
  <g
     inkscape:label="Calque 1"
     inkscape:groupmode="layer"
     id="layer1"
     transform="translate(-141.72525,-322.70837)">
    <g
       transform="translate(-211.49137,119.55708)"
       id="g5110">
      <path
         transform="matrix(0.14998019,0,0,0.14998019,286.2998,94.09998)"
         d="m 728.5714,873.79077 c 0,74.95293 -60.76136,135.71433 -135.71428,135.71433 -74.95293,0 -135.71428,-60.7614 -135.71428,-135.71433 0,-74.95293 60.76135,-135.71428 135.71428,-135.71428 74.95292,0 135.71428,60.76135 135.71428,135.71428 z"
         sodipodi:ry="135.71428"
         sodipodi:rx="135.71428"
         sodipodi:cy="873.79077"
         sodipodi:cx="592.85712"
         id="path4700-2-3-0-1-0-5-3-2-8"
         style="fill:#e74c3c;fill-opacity:1;stroke:#7b190f;stroke-width:5;stroke-miterlimit:4;stroke-opacity:1;stroke-dasharray:none"
         sodipodi:type="arc" />
      <path
         id="path10362-5-5-1"
         d="m 375.7582,214.41296 c -0.2289,-0.004 -0.46,-7.5e-4 -0.689,0.005 -2.1498,0.0822 -4.2215,0.76654 -6.2219,1.5147 -3.1317,1.25484 -5.8159,3.43507 -7.9417,6.02727 -0.7691,0.94646 -1.8678,1.65679 -2.4193,2.7717 0.083,0.44963 0.6344,0.46557 0.9309,0.23141 1.7176,-1.06667 2.7217,-2.91871 4.2181,-4.23907 2.9762,-2.85919 6.9619,-4.73932 11.0973,-5.05953 2.3388,-0.13973 4.7069,0.28028 6.8372,1.25699 2.3999,1.1518 4.2924,3.09551 6.0378,5.05428 1.0183,1.07153 2.2601,1.98429 3.6816,2.41931 0.3791,0.10152 0.7836,-0.23834 0.6206,-0.63112 -0.21,-0.56783 -0.9111,-0.63128 -1.3254,-0.98877 -1.0384,-0.61489 -1.8997,-1.45635 -2.6718,-2.37724 -2.0668,-2.22709 -4.4348,-4.39546 -7.4315,-5.21732 -1.5296,-0.47401 -3.1212,-0.74136 -4.7229,-0.76787 z m -0.8678,5.2331 c -0.3104,-0.004 -0.6169,-0.001 -0.9257,0.005 -2.7253,0.004 -5.4122,0.79992 -7.7734,2.11953 -2.3958,1.25669 -3.8448,3.65334 -5.738,5.47504 -0.9654,0.32895 -1.338,1.57516 -0.8573,2.44036 0.3883,0.89745 1.3753,1.45547 2.3457,1.35691 1.7205,0.13042 3.1942,1.09067 4.6125,1.97753 2.1111,1.11562 4.5222,1.56476 6.8898,1.73035 2.4565,0.0967 4.9784,-7.5e-4 7.3001,-0.83623 0.4398,-0.13143 0.8692,-0.29865 1.2833,-0.49965 -2.0058,1.07303 -4.3183,1.26599 -6.5427,1.49892 -2.1617,0.1562 -4.3104,-0.20153 -6.3902,-0.76786 -1.1686,-0.26058 -2.3167,-0.63579 -3.2871,-1.36219 -1.2354,-0.77351 -2.6599,-1.39821 -4.1549,-1.29381 0.2965,0.89718 1.2763,1.20683 2.109,1.38848 0.741,0.12966 1.3507,0.598 1.9144,1.05715 1.3951,0.87412 3.0736,1.09625 4.623,1.57255 1.7243,0.33803 3.5041,0.42125 5.2594,0.36815 2.3819,-0.18089 4.8302,-0.52503 6.9634,-1.65671 1.0782,-0.54824 2.0132,-1.325 2.8927,-2.14057 0.6627,-0.50606 1.6489,-0.97512 1.683,-1.92494 0.047,-0.27411 -0.3105,-0.3486 -0.4523,-0.14201 -0.742,0.40367 -1.3861,0.95805 -2.0143,1.51997 0.6117,-0.6565 1.2159,-1.37454 1.583,-2.19317 0.059,-0.53569 0.5518,-1.12649 1.1308,-0.96246 0.6978,0.0931 1.1917,0.93258 1.946,0.74683 0.4026,-0.22512 0.1784,-0.76484 -0.074,-1.02032 -0.3088,-0.44567 -0.8586,-0.58372 -1.2833,-0.86781 -2.4216,-1.90025 -3.9142,-4.86691 -6.7268,-6.26393 -1.9468,-1.0025 -4.1438,-1.30029 -6.3165,-1.32537 z m 0.284,1.2044 c 1.2609,0.002 2.6882,0.0355 3.6447,0.97825 2.9003,2.4043 3.2273,7.32135 0.5733,10.01915 -0.7925,0.89231 -1.8391,1.80982 -3.1346,1.6567 -1.8895,0.035 -3.8329,0.077 -5.6539,-0.46808 -1.4748,-0.68657 -2.3971,-2.19112 -2.9768,-3.65529 -0.8803,-2.55987 -0.1214,-5.55658 1.8145,-7.44204 0.894,-0.96961 2.3436,-1.0111 3.5817,-1.04662 0.7177,0.006 1.4335,-0.0331 2.1511,-0.0421 z m 5.2225,1.10973 0.063,0.0316 0.031,0.0105 c 2.2005,1.06324 3.5171,3.24208 5.191,4.92806 0.3728,0.58248 -0.082,1.30918 -0.4523,1.78293 -0.6189,0.88001 -1.1424,1.84463 -2.0301,2.48244 -0.9462,0.76216 -2.1277,1.33979 -3.2556,1.63041 1.733,-1.81566 2.5751,-4.44647 2.1564,-6.9424 -0.2024,-1.43766 -0.8196,-2.78785 -1.7041,-3.92351 z m -12.4069,0.24719 c 0.01,-0.001 0,0.006 -0.016,0.0263 -1.7226,2.28741 -2.2262,5.54551 -0.9625,8.16258 0.3201,0.72109 0.7561,1.41353 1.2255,2.02488 -0.9897,-0.42791 -1.8987,-1.02685 -2.8138,-1.58836 -0.569,-0.41678 -0.9613,-1.08128 -0.9519,-1.79344 -0.3366,-1.70408 -0.389,-3.71618 0.8309,-5.09635 0.7144,-0.7094 1.682,-1.14545 2.5456,-1.66723 0,0.01 0.1184,-0.0647 0.142,-0.0684 z m 6.1377,0.0579 c -2.3858,0.0418 -4.6262,2.1844 -4.4704,4.62826 -0.1441,2.58664 2.3385,4.94293 4.9175,4.63353 2.0997,-0.0981 3.9026,-1.84763 4.1654,-3.913 0.3499,-2.38293 -1.3723,-4.90219 -3.7762,-5.29093 -0.2766,-0.046 -0.5549,-0.069 -0.8363,-0.0579 z m 1.9302,2.99259 c 0.3169,0 0.5733,0.25638 0.5733,0.57328 0,0.31689 -0.2564,0.57328 -0.5733,0.57328 -0.3168,0 -0.5732,-0.25639 -0.5732,-0.57328 0,-0.3169 0.2564,-0.57328 0.5732,-0.57328 z m -13.0222,1.58835 0,0.0526 c -0.022,1.02399 0.141,2.03413 0.3103,3.03994 -0.883,-0.0551 -1.9747,0.007 -2.5771,-0.75735 -0.1106,-0.15718 -0.2303,-0.50887 0.058,-0.54698 0.7973,-0.51515 1.5429,-1.11573 2.209,-1.78819 z"
         style="fill:#7b190f" />
    </g>
  </g>
</svg>
